
<svg width="109px" height="29px" viewBox="0 0 109 29" version="1.1" xmlns="http://www.w3.org/2000/svg" xmlns:xlink="http://www.w3.org/1999/xlink">
    <g id="Screens" stroke="none" stroke-width="1" fill="none" fill-rule="evenodd">
        <g id="HOME-1" transform="translate(-47.000000, -32.000000)" fill="#000000">
            <g id="LOGOS" transform="translate(47.000000, -3.000000)">
                <g id="LUCA-LOGO" transform="translate(0.000000, 35.222222)">
                    <g id="Shape">
                        <path d="M6.78098071,27.9923393 C6.06707148,27.9939302 5.38182428,27.7100628 4.87622335,27.2032832 L0.784804529,23.0779754 C0.278629311,22.5710516 -0.00407954507,21.8811087 4.44946828e-05,21.1627907 L4.44946828e-05,0.766073871 C4.44946828e-05,0.342982955 0.341160063,7.70777271e-17 0.76194744,0 L6.24383914,0 C6.66462651,2.65785266e-17 7.00574208,0.342982955 7.00574208,0.766073871 L7.00574208,20.2588235 C6.98605169,20.5132683 7.07804185,20.7636416 7.25752275,20.944105 C7.43700365,21.1245685 7.68601376,21.2170622 7.93907319,21.197264 L17.9047637,21.197264 C18.3255511,21.197264 18.6666667,21.540247 18.6666667,21.9633379 L18.6666667,27.2339261 C18.6666667,27.657017 18.3255511,28 17.9047637,28 L6.78098071,27.9923393 Z" fill-rule="nonzero"></path>
                        <path d="M43.0225728,27.9999552 C43.7354658,28.004103 44.420198,27.7197692 44.9232933,27.2106845 L48.9946365,23.0842543 C49.499739,22.5771926 49.7818487,21.887062 49.7777334,21.1685485 L49.7777334,0.7662823 C49.7777334,0.343076272 49.4373408,2.65857579e-17 49.0174452,0 L43.5547745,0 C43.134879,-2.65857579e-17 42.7944864,0.343076272 42.7944864,0.7662823 L42.7944864,20.2643354 C42.814135,20.5188494 42.7223398,20.7692908 42.5432393,20.9498034 C42.3641388,21.1303159 42.1156564,21.2228348 41.8631333,21.2030312 L34.3666918,21.2030312 C34.1141687,21.2228348 33.8656863,21.1303159 33.6865858,20.9498034 C33.5074853,20.7692908 33.4156901,20.5188494 33.4353387,20.2643354 L33.4353387,0.7662823 C33.4353387,0.343076272 33.0949461,2.65857579e-17 32.6750506,0 L27.204777,0 C26.7848815,-2.65857579e-17 26.4444888,0.343076272 26.4444888,0.7662823 L26.4444888,21.1762114 C26.4403735,21.8947248 26.7224832,22.5848555 27.2275857,23.0919171 L31.3217376,27.2106845 C31.826267,27.717602 32.5100619,28.0015466 33.2224581,27.9999552 L43.0225728,27.9999552 Z" fill-rule="nonzero"></path>
                        <path d="M56.7777846,21.1818201 C56.7761644,21.8992427 57.0652461,22.5878621 57.5813348,23.0959513 L61.7824201,27.2113332 C62.2986555,27.7199995 63.001272,28.0040996 63.7327847,27.9999553 L77.7754097,27.9999553 C78.2062724,27.9999553 78.5555556,27.657161 78.5555556,27.2343028 L78.5555556,21.9627856 C78.5555556,21.5399274 78.2062724,21.1971332 77.7754097,21.1971332 L64.8834998,21.1971332 C64.6250317,21.215742 64.37115,21.1227775 64.1882694,20.9425589 C64.0053889,20.7623403 63.9117038,20.512797 63.9317219,20.2592089 L63.9317219,7.75610416 C63.9117038,7.50251605 64.0053889,7.25297276 64.1882694,7.07275415 C64.37115,6.89253554 64.6250317,6.79957103 64.8834998,6.8181799 L77.7754097,6.8181799 C78.2062724,6.8181799 78.5555556,6.47538561 78.5555556,6.05252743 L78.5555556,0.765697177 C78.5555556,0.342838998 78.2062724,4.47136525e-05 77.7754097,4.47136525e-05 L63.7327847,4.47136525e-05 C63.001272,-0.00409962155 62.2986555,0.280000516 61.7824201,0.788666751 L57.5813348,4.90404874 C57.0652461,5.41213786 56.7761644,6.10075733 56.7777846,6.8181799 L56.7777846,21.1818201 Z" fill-rule="nonzero"></path>
                        <path d="M108.083899,4.91191429 C107.46117,4.28356281 104.598139,1.38701571 104.00199,0.78931552 C103.499466,0.280230849 102.815512,-0.00410299396 102.103428,4.47504346e-05 L92.3182399,4.47504346e-05 C91.6061565,-0.00410299396 90.9222019,0.280230849 90.4196779,0.78931552 C89.8273266,1.38701571 86.9642951,4.28356281 86.3377697,4.91191429 C85.8353886,5.42042138 85.553985,6.10960732 85.5555621,6.82762005 L85.5555621,27.2337177 C85.5555621,27.6569237 85.8955682,28 86.3149869,28 L91.7866426,28 C92.2060613,28 92.5460674,27.6569237 92.5460674,27.2337177 L92.5460674,19.1877535 C92.526441,18.9332396 92.618132,18.6827982 92.7970291,18.5022856 C92.9759262,18.3217731 93.2241264,18.2292542 93.4763627,18.2490577 L100.975683,18.2490577 C101.227286,18.2304336 101.474424,18.3234745 101.652447,18.5038414 C101.83047,18.6842083 101.921667,18.9339568 101.902181,19.1877535 L101.902181,27.2337177 C101.902181,27.6569237 102.242187,28 102.661606,28 L108.129464,28 C108.548883,28 108.888889,27.6569237 108.888889,27.2337177 L108.888889,6.81995722 C108.884955,6.10076109 108.594918,5.41329343 108.083899,4.91191429 Z M101.890789,12.3180327 C101.910276,12.5718294 101.819079,12.821578 101.641056,13.0019449 C101.463033,13.1823117 101.215894,13.2753527 100.964291,13.2567285 L93.4649714,13.2567285 C93.212735,13.2765321 92.9645348,13.1840132 92.7856377,13.0035007 C92.6067406,12.8229881 92.5150496,12.5725467 92.534676,12.3180327 L92.534676,7.72033893 C92.5162185,7.46646391 92.6084268,7.21709379 92.7871796,7.03746312 C92.9659323,6.85783245 93.2134459,6.76581216 93.4649714,6.78547452 L100.964291,6.78547452 C101.215521,6.7656588 101.462764,6.85777 101.640952,7.03756759 C101.819141,7.21736518 101.910428,7.46684004 101.890789,7.72033893 L101.890789,12.3180327 Z" fill-rule="nonzero"></path>
                        <path d="M108.083899,4.91191429 C107.46117,4.28356281 104.598139,1.38701571 104.00199,0.78931552 C103.499466,0.280230849 102.815512,-0.00410299396 102.103428,4.47504346e-05 L92.3182399,4.47504346e-05 C91.6061565,-0.00410299396 90.9222019,0.280230849 90.4196779,0.78931552 C89.8273266,1.38701571 86.9642951,4.28356281 86.3377697,4.91191429 C85.8353886,5.42042138 85.553985,6.10960732 85.5555621,6.82762005 L85.5555621,27.2337177 C85.5555621,27.6569237 85.8955682,28 86.3149869,28 L91.7866426,28 C92.2060613,28 92.5460674,27.6569237 92.5460674,27.2337177 L92.5460674,19.1877535 C92.526441,18.9332396 92.618132,18.6827982 92.7970291,18.5022856 C92.9759262,18.3217731 93.2241264,18.2292542 93.4763627,18.2490577 L100.975683,18.2490577 C101.227286,18.2304336 101.474424,18.3234745 101.652447,18.5038414 C101.83047,18.6842083 101.921667,18.9339568 101.902181,19.1877535 L101.902181,27.2337177 C101.902181,27.6569237 102.242187,28 102.661606,28 L108.129464,28 C108.548883,28 108.888889,27.6569237 108.888889,27.2337177 L108.888889,6.81995722 C108.884955,6.10076109 108.594918,5.41329343 108.083899,4.91191429 Z M101.890789,12.3180327 C101.910276,12.5718294 101.819079,12.821578 101.641056,13.0019449 C101.463033,13.1823117 101.215894,13.2753527 100.964291,13.2567285 L93.4649714,13.2567285 C93.212735,13.2765321 92.9645348,13.1840132 92.7856377,13.0035007 C92.6067406,12.8229881 92.5150496,12.5725467 92.534676,12.3180327 L92.534676,7.72033893 C92.5162185,7.46646391 92.6084268,7.21709379 92.7871796,7.03746312 C92.9659323,6.85783245 93.2134459,6.76581216 93.4649714,6.78547452 L100.964291,6.78547452 C101.215521,6.7656588 101.462764,6.85777 101.640952,7.03756759 C101.819141,7.21736518 101.910428,7.46684004 101.890789,7.72033893 L101.890789,12.3180327 Z" fill-rule="nonzero"></path>
                    </g>
                </g>
            </g>
        </g>
    </g>
</svg>
