<?xml version="1.0" encoding="utf-8"?>
<!-- Generator: Adobe Illustrator 23.0.1, SVG Export Plug-In . SVG Version: 6.00 Build 0)  -->
<svg version="1.1" id="Capa_1" xmlns="http://www.w3.org/2000/svg" xmlns:xlink="http://www.w3.org/1999/xlink" x="0px" y="0px"
	 viewBox="0 0 300 300" style="enable-background:new 0 0 300 300;" xml:space="preserve">
<style type="text/css">
	.st0{display:none;}
	.st1{display:inline;}
	.st2{fill:#424242;}
	.st3{display:inline;fill:none;stroke:#FFFFFF;stroke-width:8;stroke-miterlimit:10;}
	.st4{enable-background:new    ;}
	.st5{fill:#FFFFFF;}
	.st6{display:inline;enable-background:new    ;}
</style>
<g id="Capa_4" class="st0">
	<g class="st1">
		<rect class="st2" width="300" height="300"/>
	</g>
</g>
<g class="st0">
	<polyline class="st3" points="43.7,158.5 110.2,225 257.3,75 	"/>
</g>
<g>
	<g class="st4">
		<path class="st5" d="M137,180.2c0-6.3,1.1-12,3.2-17.1c2.1-5.1,6.3-11.2,12.5-18.3l2.9-3.3c6.2-7.3,10.7-13.5,13.4-18.8
			c2.8-5.2,4.2-11,4.2-17.3c0-7.6-2.2-13.2-6.7-16.9c-4.6-4-12.1-5.9-22.6-5.9c-9.8,0-19.3,1.2-28.5,3.6l-3.1-15.4
			c11.4-3.5,22.9-5.2,34.5-5.2c16.6,0,29,3.8,37.1,11.4c6.8,6.5,10.2,15.1,10.2,25.9c0,8.1-1.6,15.4-4.9,22
			c-3.2,6.6-8.5,14-15.8,22.2c-6.2,7.1-10.5,12.4-13.1,15.8c-2.5,3.4-4.5,7-5.8,10.7s-2.1,8.4-2.3,14.1h-14.5
			C137.2,184.9,137,182.5,137,180.2z M133.4,222.8v-1.9c0-7.8,4-11.6,11.9-11.6h1.2c7.9,0,11.9,3.9,11.9,11.6v1.9
			c0,7.8-4,11.6-11.9,11.6h-1.2C137.4,234.4,133.4,230.5,133.4,222.8z"/>
	</g>
</g>
<g id="Capa_3" class="st0">
	<g class="st6">
		<path class="st5" d="M136.9,225.7v-2c0-8.4,4.3-12.6,12.8-12.6h1.3c8.5,0,12.8,4.2,12.8,12.6v2c0,8.4-4.3,12.6-12.8,12.6h-1.3
			C141.2,238.3,136.9,234.1,136.9,225.7z M138.7,59.5h22.8l-3.6,128.3h-15.6L138.7,59.5z"/>
	</g>
</g>
</svg>
