
<svg width="57px" height="57px" viewBox="0 0 57 57" version="1.1" xmlns="http://www.w3.org/2000/svg" xmlns:xlink="http://www.w3.org/1999/xlink">
    <defs>
        <polygon id="path-1" points="0 0.3206 56.02905 0.3206 56.02905 56.34993 0 56.34993"></polygon>
    </defs>
    <g id="Screens" stroke="none" stroke-width="1" fill="none" fill-rule="evenodd">
        <g id="HOME-1" transform="translate(-523.000000, -2547.000000)">
            <g id="Icons" transform="translate(105.000000, 2317.000000)">
                <g id="Icon" transform="translate(84.000000, 0.000000)">
                    <g id="customice" transform="translate(334.000000, 230.000000)">
                        <g id="Group-6">
                            <path d="M28.014665,20.58539 C22.707265,20.58539 20.235215,23.05744 20.235215,28.36484 C20.235215,33.67224 22.707265,36.14394 28.014665,36.14394 C33.322065,36.14394 35.793765,33.67224 35.793765,28.36484 C35.793765,23.05744 33.322065,20.58539 28.014665,20.58539 M28.014665,39.33594 C20.939765,39.33594 17.043215,35.43939 17.043215,28.36484 C17.043215,21.28994 20.939765,17.39339 28.014665,17.39339 C35.089565,17.39339 38.985765,21.28994 38.985765,28.36484 C38.985765,35.43939 35.089565,39.33594 28.014665,39.33594" id="Fill-1" fill="#003245"></path>
                            <g id="Group-5" transform="translate(0.000000, 0.029400)">
                                <mask id="mask-2" fill="white">
                                    <use xlink:href="#path-1"></use>
                                </mask>
                                <g id="Clip-4"></g>
                                <path d="M26.26981,53.15793 L29.75966,53.15793 L29.75966,47.99683 C29.75931,47.98598 29.75931,47.97478 29.75931,47.96393 C29.75931,46.55868 30.82856,45.37463 32.30171,45.14853 C32.30346,45.14818 32.30521,45.14783 32.30696,45.14783 C34.31771,44.83738 36.01241,44.31728 37.63991,43.51158 C38.83026,42.92253 40.16411,43.10733 41.03911,43.98198 C41.04716,43.99038 41.05486,43.99808 41.06291,44.00648 L44.86916,47.81273 L47.49206,45.18983 L43.68511,41.38288 C43.67706,41.37518 43.66901,41.36748 43.66131,41.35978 C42.78246,40.48093 42.59801,39.10858 43.20071,37.94168 C43.97176,36.41288 44.51916,34.62333 44.82786,32.62238 C45.05361,31.14958 46.23766,30.07963 47.64326,30.07963 L52.83726,30.07998 L52.83726,26.59048 L47.64326,26.59083 C46.23766,26.59083 45.05361,25.52088 44.82751,24.04703 C44.51916,22.04713 43.97176,20.25758 43.20071,18.72913 C42.59801,17.56188 42.78246,16.18988 43.66131,15.31103 C43.66936,15.30298 43.67741,15.29493 43.68546,15.28723 L47.49206,11.48098 L44.86916,8.85808 L41.06221,12.66503 C41.05451,12.67273 41.04681,12.68078 41.03911,12.68848 C40.16446,13.56313 38.82991,13.74758 37.63991,13.15888 C36.01241,12.35353 34.31771,11.83378 32.30696,11.52298 C32.30521,11.52263 32.30346,11.52263 32.30171,11.52228 C30.82856,11.29653 29.75931,10.11213 29.75931,8.70653 C29.75931,8.69568 29.75931,8.68448 29.75966,8.67293 L29.75966,3.51253 L26.26981,3.51253 L26.27016,8.70653 C26.27016,10.11213 25.20021,11.29653 23.72601,11.52228 C21.72646,11.83098 19.93691,12.37838 18.40811,13.14943 C17.24121,13.75178 15.86886,13.56733 14.99001,12.68848 C14.98231,12.68078 14.97426,12.67238 14.96656,12.66433 L11.16031,8.85808 L8.53706,11.48098 L12.34401,15.28793 C12.35206,15.29528 12.36011,15.30333 12.36781,15.31068 C13.41326,16.35648 13.35971,17.87723 12.76611,18.83973 C12.18056,19.78963 11.52221,21.98133 11.20091,24.05088 C10.97621,25.49883 9.76591,26.59083 8.38586,26.59083 C8.37571,26.59083 8.36486,26.59083 8.35436,26.59048 L3.19186,26.59048 L3.19186,30.07998 L8.35506,30.07998 C8.36556,30.07963 8.37571,30.07963 8.38586,30.07963 C9.76591,30.07963 10.97621,31.17198 11.20091,32.61958 C11.52221,34.68913 12.18056,36.88083 12.76611,37.83108 C13.35971,38.79323 13.41326,40.31468 12.36781,41.35978 C12.35976,41.36748 12.35171,41.37553 12.34366,41.38323 L8.53706,45.18983 L11.16031,47.81273 L14.96691,44.00613 C14.97461,43.99773 14.98231,43.99003 14.99001,43.98198 C15.86886,43.10313 17.24121,42.91903 18.40811,43.52138 C19.93691,44.29243 21.72646,44.83983 23.72776,45.14853 C25.20021,45.37463 26.27016,46.55868 26.27016,47.96393 L26.26981,53.15793 Z M30.15831,56.34993 L25.87081,56.34993 C24.33046,56.34993 23.07781,55.09693 23.07781,53.55728 L23.07816,48.27753 C20.85041,47.91913 18.82986,47.29473 17.06726,46.41973 L13.16301,50.32398 C12.05841,51.42858 10.26186,51.42858 9.15726,50.32398 L6.02581,47.19253 C5.49171,46.65878 5.19771,45.94723 5.19771,45.18983 C5.19771,44.43243 5.49171,43.72123 6.02581,43.18713 L9.92201,39.29093 C9.02006,37.69528 8.37326,35.12103 8.07261,33.27233 L2.79286,33.27233 C1.25286,33.27233 -0.00014,32.01933 -0.00014,30.47933 L-0.00014,26.19148 C-0.00014,24.65148 1.25286,23.39848 2.79286,23.39848 L8.07261,23.39848 C8.37326,21.54943 9.02006,18.97518 9.92201,17.37988 L6.02581,13.48368 C5.49171,12.94958 5.19771,12.23838 5.19771,11.48098 C5.19771,10.72323 5.49171,10.01238 6.02581,9.47793 L9.15726,6.34648 C10.26151,5.24258 12.05841,5.24223 13.16301,6.34648 L17.06726,10.25108 C18.83021,9.37573 20.85111,8.75098 23.07816,8.39328 L23.07781,3.11388 C23.07781,1.57353 24.33046,0.32053 25.87081,0.32053 L30.15831,0.32053 C31.69866,0.32053 32.95131,1.57353 32.95131,3.11388 L32.95131,8.39328 C35.18851,8.75203 37.10546,9.34458 38.96116,10.25143 L42.86646,6.34648 C43.97071,5.24258 45.76761,5.24258 46.87186,6.34648 L50.00331,9.47793 C50.53741,10.01238 50.83141,10.72323 50.83141,11.48098 C50.83141,12.23838 50.53741,12.94958 50.00331,13.48368 L46.09871,17.38828 C46.97406,19.15088 47.59881,21.17178 47.95686,23.39883 L53.23591,23.39848 C54.77626,23.39848 56.02926,24.65148 56.02926,26.19148 L56.02926,30.47933 C56.02926,32.01933 54.77626,33.27233 53.23626,33.27233 L47.95686,33.27198 C47.59846,35.49973 46.97406,37.51993 46.09871,39.28253 L50.00331,43.18713 C50.53741,43.72123 50.83141,44.43243 50.83141,45.18983 C50.83141,45.94723 50.53741,46.65878 50.00331,47.19253 L46.87186,50.32398 C45.76761,51.42858 43.97071,51.42858 42.86646,50.32398 L38.96116,46.41903 C37.10546,47.32588 35.18851,47.91878 32.95131,48.27753 L32.95131,53.55728 C32.95131,55.09693 31.69866,56.34993 30.15831,56.34993 L30.15831,56.34993 Z" id="Fill-3" fill="#003245" mask="url(#mask-2)"></path>
                            </g>
                        </g>
                    </g>
                </g>
            </g>
        </g>
    </g>
</svg>
