
<svg width="57px" height="57px" viewBox="0 0 57 57" version="1.1" xmlns="http://www.w3.org/2000/svg" xmlns:xlink="http://www.w3.org/1999/xlink">
    <defs>
        <polygon id="path-1" points="0 0.199185 56.15043 0.199185 56.15043 56.35 0 56.35"></polygon>
    </defs>
    <g id="Screens" stroke="none" stroke-width="1" fill="none" fill-rule="evenodd">
        <g id="HOME-1" transform="translate(-1150.000000, -2337.000000)">
            <g id="Icons" transform="translate(105.000000, 2317.000000)">
                <g id="fallback" transform="translate(1045.000000, 20.000000)">
                    <g id="Group-8">
                        <g id="Group-3" transform="translate(0.000000, 0.150850)">
                            <mask id="mask-2" fill="white">
                                <use xlink:href="#path-1"></use>
                            </mask>
                            <g id="Clip-2"></g>
                            <path d="M28.06818,3.308235 C11.50618,3.308235 3.10863,11.710335 3.10863,28.281785 C3.10863,44.843435 11.50618,53.240985 28.06818,53.240985 C44.63928,53.240985 53.04173,44.843435 53.04173,28.281785 C53.04173,11.710335 44.63928,3.308235 28.06818,3.308235 M28.06818,56.350035 C19.14913,56.350035 12.21213,54.022535 7.45003,49.432635 C2.50663,44.668435 -7e-05,37.552235 -7e-05,28.281785 C-7e-05,19.010285 2.50628,11.891985 7.44968,7.123935 C12.21318,2.529135 19.15018,0.199185 28.06818,0.199185 C36.98688,0.199185 43.92633,2.528785 48.69333,7.123235 C53.64128,11.892685 56.15043,19.011335 56.15043,28.281785 C56.15043,37.551185 53.64128,44.667735 48.69298,49.433335 C43.92738,54.022535 36.98793,56.350035 28.06818,56.350035" id="Fill-1" fill="#003245" mask="url(#mask-2)"></path>
                        </g>
                        <path d="M14.15638,27.583115 L23.66728,33.243665 L23.66728,21.868665 L14.15638,27.583115 Z M25.26363,37.648065 C24.98083,37.648065 24.69873,37.572815 24.44708,37.423365 L10.22938,28.961415 C9.74673,28.674065 9.45063,28.154665 9.44958,27.592915 C9.44818,27.031515 9.74218,26.510715 10.22378,26.220915 L24.44148,17.678465 C24.93428,17.382365 25.54888,17.373965 26.04973,17.657815 C26.55058,17.940965 26.85998,18.471915 26.85998,19.046965 L26.85998,36.051365 C26.85998,36.625715 26.55163,37.155615 26.05253,37.439115 C25.80788,37.578765 25.53558,37.648065 25.26363,37.648065 L25.26363,37.648065 Z" id="Fill-4" fill="#003245"></path>
                        <path d="M31.16386,27.59645 L40.67441,33.257 L40.67441,21.882 L31.16386,27.59645 Z M42.27076,37.6614 C41.98831,37.6614 41.70586,37.58615 41.45421,37.4367 L27.23686,28.97475 C26.75421,28.6874 26.45811,28.168 26.45706,27.60625 C26.45566,27.04485 26.74966,26.52405 27.23126,26.23425 L41.44861,17.6918 C41.94176,17.3957 42.55671,17.388 43.05686,17.67115 C43.55771,17.9543 43.86711,18.48525 43.86711,19.0603 L43.86711,36.0647 C43.86711,36.63905 43.55911,37.16895 43.06001,37.45245 C42.81536,37.5921 42.54306,37.6614 42.27076,37.6614 L42.27076,37.6614 Z" id="Fill-6" fill="#003245"></path>
                    </g>
                </g>
            </g>
        </g>
    </g>
</svg>
