
<svg width="56px" height="38px" viewBox="0 0 56 38" version="1.1" xmlns="http://www.w3.org/2000/svg" xmlns:xlink="http://www.w3.org/1999/xlink">
    <defs>
        <polygon id="path-1" points="0.0571130435 0.08265 13.8845913 0.08265 13.8845913 14.0740741 0.0571130435 14.0740741"></polygon>
        <polygon id="path-3" points="0.254469565 0.08265 14.0816 0.08265 14.0816 14.0740741 0.254469565 14.0740741"></polygon>
        <polygon id="path-5" points="0.117426087 0.0239259259 51.2238609 0.0239259259 51.2238609 32.9550074 0.117426087 32.9550074"></polygon>
    </defs>
    <g id="Screens" stroke="none" stroke-width="1" fill="none" fill-rule="evenodd">
        <g id="HOME-1" transform="translate(-209.000000, -2556.000000)">
            <g id="Icons" transform="translate(105.000000, 2317.000000)">
                <g id="Icon" transform="translate(84.000000, 0.000000)">
                    <g id="faster" transform="translate(20.000000, 239.000000)">
                        <g id="Group-18">
                            <g id="Group-3" transform="translate(9.391304, 23.902000)">
                                <mask id="mask-2" fill="white">
                                    <use xlink:href="#path-1"></use>
                                </mask>
                                <g id="Clip-2"></g>
                                <path d="M6.97085217,3.29153889 C4.34824348,3.29153889 3.22928696,4.42415 3.22928696,7.07852037 C3.22928696,9.73289074 4.34824348,10.86515 6.97085217,10.86515 C9.59346087,10.86515 10.7124174,9.73289074 10.7124174,7.07852037 C10.7124174,4.42415 9.59346087,3.29153889 6.97085217,3.29153889 M6.97085217,14.0743907 C2.57711304,14.0743907 0.0571130435,11.5241685 0.0571130435,7.07852037 C0.0571130435,2.63252037 2.57711304,0.08265 6.97085217,0.08265 C11.3645913,0.08265 13.8845913,2.63252037 13.8845913,7.07852037 C13.8845913,11.5241685 11.3645913,14.0743907 6.97085217,14.0743907" id="Fill-1" fill="#003245" mask="url(#mask-2)"></path>
                            </g>
                            <g id="Group-6" transform="translate(35.478261, 23.902000)">
                                <mask id="mask-4" fill="white">
                                    <use xlink:href="#path-3"></use>
                                </mask>
                                <g id="Clip-5"></g>
                                <path d="M7.1682087,3.29153889 C4.5456,3.29153889 3.42664348,4.42415 3.42664348,7.07852037 C3.42664348,9.73289074 4.5456,10.86515 7.1682087,10.86515 C9.79046957,10.86515 10.9097739,9.73289074 10.9097739,7.07852037 C10.9097739,4.42415 9.79046957,3.29153889 7.1682087,3.29153889 M7.1682087,14.0743907 C2.77446957,14.0743907 0.254469565,11.5241685 0.254469565,7.07852037 C0.254469565,2.63252037 2.77446957,0.08265 7.1682087,0.08265 C11.5619478,0.08265 14.0816,2.63252037 14.0816,7.07852037 C14.0816,11.5241685 11.5619478,14.0743907 7.1682087,14.0743907" id="Fill-4" fill="#003245" mask="url(#mask-4)"></path>
                            </g>
                            <path d="M36.5917913,33.2849741 L22.3702261,33.2849741 C21.4944,33.2849741 20.7841391,32.5664926 20.7841391,31.6801778 C20.7841391,30.7942148 21.4944,30.0760852 22.3702261,30.0760852 L36.5917913,30.0760852 C37.4679652,30.0760852 38.1778783,30.7942148 38.1778783,31.6801778 C38.1778783,32.5664926 37.4679652,33.2849741 36.5917913,33.2849741" id="Fill-7" fill="#003245"></path>
                            <g id="Group-11" transform="translate(4.521739, 0.327926)">
                                <mask id="mask-6" fill="white">
                                    <use xlink:href="#path-5"></use>
                                </mask>
                                <g id="Clip-10"></g>
                                <path d="M46.5449043,32.9550074 L43.8899478,32.9550074 C43.0141217,32.9550074 42.3042087,32.2368778 42.3042087,31.350563 C42.3042087,30.4646 43.0141217,29.7464704 43.8899478,29.7464704 L46.5449043,29.7464704 C47.2207304,29.7464704 48.051687,28.9058963 48.051687,28.2222481 L48.051687,18.8358963 C48.051687,18.288063 47.1351652,17.081563 46.8339478,16.6850259 C45.9024696,15.4591741 38.759513,5.86487778 37.5254261,4.12954444 C37.167513,3.62674815 36.3748174,3.23267407 35.7198609,3.23267407 L4.79673043,3.23267407 C4.12055652,3.23267407 3.28994783,4.07324815 3.28994783,4.7568963 L3.28994783,28.2222481 C3.28994783,28.9058963 4.12055652,29.7464704 4.79673043,29.7464704 L6.34281739,29.7464704 C7.21864348,29.7464704 7.92890435,30.4646 7.92890435,31.350563 C7.92890435,32.2368778 7.21864348,32.9550074 6.34281739,32.9550074 L4.79673043,32.9550074 C3.64194783,32.9550074 2.45794783,32.4275815 1.54873043,31.5074889 C0.639165217,30.5873963 0.117426087,29.3900444 0.117426087,28.2222481 L0.117426087,4.7568963 C0.117426087,3.5891 0.639165217,2.39174815 1.54873043,1.47165556 C2.45794783,0.551562963 3.64194783,0.0237851852 4.79673043,0.0237851852 L35.7198609,0.0237851852 C37.3908174,0.0237851852 39.1508174,0.920655556 40.1003826,2.25558148 C41.323687,3.97578519 48.4224696,13.5102667 49.3490783,14.7297852 C50.0502957,15.6526926 51.2238609,17.1976741 51.2238609,18.8358963 L51.2238609,28.2222481 C51.2238609,29.3900444 50.7024696,30.5873963 49.7929043,31.5074889 C48.883687,32.4275815 47.699687,32.9550074 46.5449043,32.9550074" id="Fill-9" fill="#003245" mask="url(#mask-6)"></path>
                            </g>
                            <path d="M6.22525217,9.81810926 L1.58594783,9.81810926 C0.710121739,9.81810926 0.000208695652,9.09962778 0.000208695652,8.21331296 C0.000208695652,7.32770185 0.710121739,6.60922037 1.58594783,6.60922037 L6.22525217,6.60922037 C7.10142609,6.60922037 7.81168696,7.32770185 7.81168696,8.21331296 C7.81168696,9.09962778 7.10142609,9.81810926 6.22525217,9.81810926" id="Fill-12" fill="#003245"></path>
                            <path d="M6.22525217,17.6396 L1.58594783,17.6396 C0.710121739,17.6396 0.000208695652,16.9214704 0.000208695652,16.0351556 C0.000208695652,15.1491926 0.710121739,14.4307111 1.58594783,14.4307111 L6.22525217,14.4307111 C7.10142609,14.4307111 7.81168696,15.1491926 7.81168696,16.0351556 C7.81168696,16.9214704 7.10142609,17.6396 6.22525217,17.6396" id="Fill-14" fill="#003245"></path>
                            <path d="M6.22525217,25.4614426 L1.58594783,25.4614426 C0.710121739,25.4614426 0.000208695652,24.7429611 0.000208695652,23.8566463 C0.000208695652,22.9710352 0.710121739,22.2525537 1.58594783,22.2525537 L6.22525217,22.2525537 C7.10142609,22.2525537 7.81168696,22.9710352 7.81168696,23.8566463 C7.81168696,24.7429611 7.10142609,25.4614426 6.22525217,25.4614426" id="Fill-16" fill="#003245"></path>
                        </g>
                    </g>
                </g>
            </g>
        </g>
    </g>
</svg>
