
<svg width="14px" height="14px" viewBox="0 0 14 14" version="1.1" xmlns="http://www.w3.org/2000/svg" xmlns:xlink="http://www.w3.org/1999/xlink">
    <!-- Generator: Sketch 49.1 (51147) - http://www.bohemiancoding.com/sketch -->
    <desc>Created with Sketch.</desc>
    <defs></defs>
    <g id="Page-1" stroke="none" stroke-width="1" fill-rule="evenodd">
        <g id="List" transform="translate(-840.000000, -729.000000)">
            <g id="iconos-default" transform="translate(211.000000, 724.000000)">
                <g id="Material/Icons-black/fullscreen-exit" transform="translate(624.000000, 0.000000)">
                    <path d="M5,16 L8,16 L8,19 L10,19 L10,14 L5,14 L5,16 L5,16 Z M8,8 L5,8 L5,10 L10,10 L10,5 L8,5 L8,8 L8,8 Z M14,19 L16,19 L16,16 L19,16 L19,14 L14,14 L14,19 L14,19 Z M16,8 L16,5 L14,5 L14,10 L19,10 L19,8 L16,8 L16,8 Z" id="Shape"></path>
                </g>
            </g>
        </g>
    </g>
</svg>
