
<svg width="56px" height="57px" viewBox="0 0 56 57" version="1.1" xmlns="http://www.w3.org/2000/svg" xmlns:xlink="http://www.w3.org/1999/xlink">
    <defs>
        <polygon id="path-1" points="3.5e-05 0.04865 55.95205 0.04865 55.95205 56 3.5e-05 56"></polygon>
    </defs>
    <g id="Screens" stroke="none" stroke-width="1" fill="none" fill-rule="evenodd">
        <g id="HOME-1" transform="translate(-837.000000, -2548.000000)">
            <g id="Icons" transform="translate(105.000000, 2317.000000)">
                <g id="Icon" transform="translate(84.000000, 0.000000)">
                    <g id="easy-integration" transform="translate(648.000000, 231.000000)">
                        <g id="Group-8">
                            <g id="Group-3" transform="translate(0.000000, 0.301350)">
                                <mask id="mask-2" fill="white">
                                    <use xlink:href="#path-1"></use>
                                </mask>
                                <g id="Clip-2"></g>
                                <path d="M27.968885,3.145905 C11.465685,3.145905 3.097535,11.518605 3.097535,28.031255 C3.097535,44.534455 11.465685,52.902605 27.968885,52.902605 C44.481535,52.902605 52.854235,44.534455 52.854235,28.031255 C52.854235,11.518605 44.481535,3.145905 27.968885,3.145905 M27.968885,56.000105 C19.081335,56.000105 12.169185,53.681355 7.423535,49.107555 C2.497635,44.359805 3.5e-05,37.268805 3.5e-05,28.031255 C3.5e-05,18.792655 2.497635,11.699205 7.423185,6.947955 C12.169885,2.369605 19.082385,0.048405 27.968885,0.048405 C36.856435,0.048405 43.771035,2.369605 48.521235,6.947605 C53.452035,11.699905 55.952085,18.793355 55.952085,28.031255 C55.952085,37.267755 53.451685,44.359105 48.520885,49.107905 C43.772085,53.681355 36.857485,56.000105 27.968885,56.000105" id="Fill-1" fill="#003245" mask="url(#mask-2)"></path>
                            </g>
                            <path d="M28.19054,45.634225 C17.06299,45.634225 10.93449,39.506075 10.93449,28.378175 C10.93449,16.513875 17.64609,12.686625 23.27619,11.565225 C24.13894,11.394075 24.97579,11.953725 25.14729,12.814725 C25.31879,13.676425 24.75949,14.514325 23.89779,14.685825 C17.31569,15.996575 14.11599,20.475175 14.11599,28.378175 C14.11599,37.848825 18.71989,42.452725 28.19054,42.452725 C37.66679,42.452725 42.27314,37.848825 42.27314,28.378175 C42.27314,20.368075 38.98209,15.871975 32.21134,14.633675 C31.34719,14.475825 30.77494,13.646675 30.93279,12.782875 C31.09099,11.918375 31.91874,11.345425 32.78394,11.503975 C38.56419,12.561325 45.45464,16.346575 45.45464,28.378175 C45.45464,39.506075 39.32369,45.634225 28.19054,45.634225" id="Fill-4" fill="#003245"></path>
                            <path d="M28.115185,21.346465 C27.236685,21.346465 26.524435,20.634215 26.524435,19.755715 L26.524435,8.123115 C26.524435,7.244615 27.236685,6.532365 28.115185,6.532365 C28.993685,6.532365 29.705935,7.244615 29.705935,8.123115 L29.705935,19.755715 C29.705935,20.634215 28.993685,21.346465 28.115185,21.346465" id="Fill-6" fill="#003245"></path>
                        </g>
                    </g>
                </g>
            </g>
        </g>
    </g>
</svg>
