
<svg width="41px" height="56px" viewBox="0 0 41 56" version="1.1" xmlns="http://www.w3.org/2000/svg" xmlns:xlink="http://www.w3.org/1999/xlink">
    <defs>
        <polygon id="path-1" points="0 0.11438 40.8098095 0.11438 40.8098095 36.39993 0 36.39993"></polygon>
    </defs>
    <g id="Screens" stroke="none" stroke-width="1" fill="none" fill-rule="evenodd">
        <g id="HOME-1" transform="translate(-532.000000, -2334.000000)">
            <g id="Icons" transform="translate(105.000000, 2317.000000)">
                <g id="Icon" transform="translate(84.000000, 0.000000)">
                    <g id="lock" transform="translate(343.000000, 17.000000)">
                        <g>
                            <g id="Group-3" transform="translate(0.000000, 19.481350)">
                                <mask id="mask-2" fill="white">
                                    <use xlink:href="#path-1"></use>
                                </mask>
                                <g id="Clip-2"></g>
                                <path d="M3.31566293,9.64313 C3.31566293,9.64558 3.32025776,10.00293 3.32626638,10.86603 L3.32626638,10.87828 L3.31566293,26.87153 C3.31566293,31.13173 5.37591293,33.11658 9.800025,33.11658 L30.9429474,33.11658 C35.3592836,33.11658 37.441094,31.12543 37.4941112,26.85018 L37.4941112,9.64418 C37.441094,5.38923 35.3592836,3.39773 30.9429474,3.39773 L9.800025,3.39773 C5.37626638,3.39773 3.31601638,5.38223 3.31566293,9.64313 M30.9429474,36.39993 L9.800025,36.39993 C3.48036983,36.39993 -3.53448276e-05,33.01543 -3.53448276e-05,26.87048 L0.0105681034,10.88178 C0.00455948276,10.01483 0.000318103448,9.66868 -3.53448276e-05,9.66483 C-3.53448276e-05,3.49888 3.48036983,0.11438 9.800025,0.11438 L30.9429474,0.11438 C37.2293784,0.11438 40.7334647,3.49188 40.8098095,9.62388 L40.8098095,26.87048 C40.7334647,33.02278 37.2293784,36.39993 30.9429474,36.39993" id="Fill-1" fill="#003245" mask="url(#mask-2)"></path>
                            </g>
                            <path d="M8.01956466,22.87404 C7.10378017,22.87404 6.36189224,22.13904 6.36189224,21.23254 L6.36189224,12.80034 C6.36189224,5.74224 12.5401681,0.00014 20.1347112,0.00014 L20.6754871,0.00014 C28.2696767,0.00014 34.4479526,5.74224 34.4479526,12.80034 L34.4479526,21.16604 C34.4479526,22.07289 33.7060647,22.80789 32.7902802,22.80789 C31.8744957,22.80789 31.1326078,22.07289 31.1326078,21.16604 L31.1326078,12.80034 C31.1326078,7.55279 26.4412888,3.28314 20.6754871,3.28314 L20.1347112,3.28314 C14.368556,3.28314 9.67723707,7.55279 9.67723707,12.80034 L9.67723707,21.23254 C9.67723707,22.13904 8.93534914,22.87404 8.01956466,22.87404" id="Fill-4" fill="#003245"></path>
                            <path d="M20.4240793,38.72554 C19.1933724,38.72554 18.8180103,39.09724 18.8180103,40.31769 C18.8180103,41.53639 19.1933724,41.90809 20.4240793,41.90809 C21.6562,41.90809 22.0319155,41.53639 22.0319155,40.31769 C22.0319155,39.09724 21.6562,38.72554 20.4240793,38.72554 M20.4240793,45.19144 C17.3423638,45.19144 15.5023121,43.36934 15.5023121,40.31769 C15.5023121,37.26464 17.3423638,35.44219 20.4240793,35.44219 C23.4609069,35.44219 25.3476138,37.31049 25.3476138,40.31769 C25.3476138,43.36934 23.5072086,45.19144 20.4240793,45.19144" id="Fill-6" fill="#003245"></path>
                        </g>
                    </g>
                </g>
            </g>
        </g>
    </g>
</svg>
