
<svg width="54px" height="54px" viewBox="0 0 54 54" version="1.1" xmlns="http://www.w3.org/2000/svg" xmlns:xlink="http://www.w3.org/1999/xlink">
    <defs>
        <polygon id="path-1" points="0 0.0197888199 53.9800875 0.0197888199 53.9800875 53.6644286 0 53.6644286"></polygon>
    </defs>
    <g id="Screens" stroke="none" stroke-width="1" fill="none" fill-rule="evenodd">
        <g id="HOME-1" transform="translate(-838.000000, -2338.000000)">
            <g id="Icons" transform="translate(105.000000, 2317.000000)">
                <g id="all-paltform" transform="translate(733.000000, 21.000000)">
                    <g id="Group-12">
                        <g id="Group-3" transform="translate(0.000000, 0.315615)">
                            <mask id="mask-2" fill="white">
                                <use xlink:href="#path-1"></use>
                            </mask>
                            <g id="Clip-2"></g>
                            <path d="M26.9833613,3.06709938 C11.1134363,3.06709938 3.06642375,11.0681553 3.06642375,26.8485652 C3.06642375,42.6202547 11.1134363,50.6172857 26.9833613,50.6172857 C42.8623988,50.6172857 50.9137988,42.6202547 50.9137988,26.8485652 C50.9137988,11.0681553 42.8623988,3.06709938 26.9833613,3.06709938 M26.9833612,53.6644286 C18.4111987,53.6644286 11.7428737,51.4407019 7.16367375,47.0546273 C2.41032375,42.5018571 -0.00010125,35.703559 -0.00010125,26.8485652 C-0.00010125,17.993236 2.40998625,11.1929255 7.16333625,6.63680124 C11.7438862,2.24603106 18.4122112,0.019621118 26.9833612,0.019621118 C35.5555237,0.019621118 42.2262112,2.24603106 46.8097987,6.63613043 C51.5675362,11.1935963 53.9803237,17.9939068 53.9803237,26.8485652 C53.9803237,35.7028882 51.5675362,42.5011863 46.8091237,47.0549627 C42.2268862,51.4410373 35.5565363,53.6644286 26.9833612,53.6644286" id="Fill-1" fill="#003245" mask="url(#mask-2)"></path>
                        </g>
                        <path d="M26.8444463,53.7391565 C25.9976587,53.7391565 25.3111837,53.0569453 25.3111837,52.2154174 L25.3111837,1.95181491 C25.3111837,1.11028696 25.9976587,0.428075776 26.8444463,0.428075776 C27.6912338,0.428075776 28.3777088,1.11028696 28.3777088,1.95181491 L28.3777088,52.2154174 C28.3777088,53.0569453 27.6912338,53.7391565 26.8444463,53.7391565" id="Fill-4" fill="#003245"></path>
                        <path d="M50.9397525,19.8083404 L2.8061775,19.8083404 C1.9597275,19.8083404 1.272915,19.1261292 1.272915,18.2846012 C1.272915,17.4430733 1.9597275,16.7608621 2.8061775,16.7608621 L50.9397525,16.7608621 C51.78654,16.7608621 52.473015,17.4430733 52.473015,18.2846012 C52.473015,19.1261292 51.78654,19.8083404 50.9397525,19.8083404" id="Fill-6" fill="#003245"></path>
                        <path d="M26.5517663,3.5373354 C19.6947788,3.5373354 13.9019287,14.3312981 13.9019287,27.1074969 C13.9019287,39.8840311 19.6947788,50.6779938 26.5517663,50.6779938 C33.4087537,50.6779938 39.2016038,39.8840311 39.2016038,27.1074969 C39.2016038,14.3312981 33.4087537,3.5373354 26.5517663,3.5373354 M26.5517663,53.725472 C17.7389663,53.725472 10.8354038,42.0332981 10.8354038,27.1074969 C10.8354038,12.1816957 17.7389663,0.489857143 26.5517663,0.489857143 C35.3645663,0.489857143 42.2681287,12.1816957 42.2681287,27.1074969 C42.2681287,42.0332981 35.3645663,53.725472 26.5517663,53.725472" id="Fill-8" fill="#003245"></path>
                        <path d="M50.9463338,39.140877 L3.12899625,39.140877 C2.28254625,39.140877 1.59573375,38.4586658 1.59573375,37.6171379 C1.59573375,36.7756099 2.28254625,36.0933988 3.12899625,36.0933988 L50.9463338,36.0933988 C51.7931213,36.0933988 52.4795963,36.7756099 52.4795963,37.6171379 C52.4795963,38.4586658 51.7931213,39.140877 50.9463338,39.140877" id="Fill-10" fill="#003245"></path>
                    </g>
                </g>
            </g>
        </g>
    </g>
</svg>
