
<svg width="56px" height="57px" viewBox="0 0 56 57" version="1.1" xmlns="http://www.w3.org/2000/svg" xmlns:xlink="http://www.w3.org/1999/xlink">
    <defs>
        <polygon id="path-1" points="0 0.15295 55.8467 0.15295 55.8467 55.999825 0 55.999825"></polygon>
    </defs>
    <g id="Screens" stroke="none" stroke-width="1" fill="none" fill-rule="evenodd">
        <g id="HOME-1" transform="translate(-209.000000, -2337.000000)">
            <g id="Icons" transform="translate(105.000000, 2317.000000)">
                <g id="Icon" transform="translate(84.000000, 0.000000)">
                    <g id="play" transform="translate(20.000000, 20.000000)">
                        <g id="Group-6">
                            <g id="Group-3" transform="translate(0.000000, 0.197050)">
                                <mask id="mask-2" fill="white">
                                    <use xlink:href="#path-1"></use>
                                </mask>
                                <g id="Clip-2"></g>
                                <path d="M27.916595,3.244675 C11.444195,3.244675 3.091795,11.601625 3.091795,28.083475 C3.091795,44.555875 11.444195,52.908275 27.916595,52.908275 C44.398095,52.908275 52.755045,44.555875 52.755045,28.083475 C52.755045,11.601625 44.398095,3.244675 27.916595,3.244675 M27.916595,55.999825 C19.045495,55.999825 12.145945,53.685275 7.409745,49.120225 C2.492945,44.381575 -0.000105,37.303875 -0.000105,28.083475 C-0.000105,18.862375 2.492595,11.782225 7.409045,7.040075 C12.146995,2.469775 19.046545,0.152775 27.916595,0.152775 C36.787345,0.152775 43.688995,2.469775 48.430095,7.039725 C53.351445,11.782925 55.846945,18.863075 55.846945,28.083475 C55.846945,37.303175 53.351445,44.380875 48.429745,49.120575 C43.689695,53.685275 36.788395,55.999825 27.916595,55.999825" id="Fill-1" fill="#003245" mask="url(#mask-2)"></path>
                            </g>
                            <path d="M21.342125,19.69828 L21.342125,36.74153 L36.101975,28.22008 L21.342125,19.69828 Z M19.962075,40.51208 C19.723725,40.51208 19.485375,40.45013 19.271875,40.32693 C18.844875,40.08018 18.581675,39.62518 18.581675,39.13168 L18.581675,17.30813 C18.581675,16.81498 18.844875,16.35963 19.271875,16.11288 C19.699225,15.86683 20.224925,15.86683 20.651925,16.11288 L39.551925,27.02483 C39.978925,27.27158 40.242125,27.72658 40.242125,28.22008 C40.242125,28.71323 39.978925,29.16858 39.551925,29.41533 L20.651925,40.32693 C20.438425,40.45013 20.200075,40.51208 19.962075,40.51208 L19.962075,40.51208 Z" id="Fill-4" fill="#003245"></path>
                        </g>
                    </g>
                </g>
            </g>
        </g>
    </g>
</svg>
