
<svg width="16px" height="16px" viewBox="0 0 16 16" version="1.1" xmlns="http://www.w3.org/2000/svg" xmlns:xlink="http://www.w3.org/1999/xlink">
    <!-- Generator: Sketch 49.1 (51147) - http://www.bohemiancoding.com/sketch -->
    <desc>Created with Sketch.</desc>
    <defs></defs>
    <g id="Page-1" stroke="none" stroke-width="1" fill-rule="evenodd">
        <g id="List" transform="translate(-995.000000, -728.000000)">
            <g id="iconos-default" transform="translate(211.000000, 724.000000)">
                <g id="Material/Icons-black/refresh" transform="translate(780.000000, 0.000000)">
                    <path d="M12,4 C7.6,4 4,7.6 4,12 C4,16.4 7.6,20 12,20 C15.7,20 18.8,17.4 20,14 L18,14 C16.8,16.3 14.6,18 12,18 C8.7,18 6,15.3 6,12 C6,8.7 8.7,6 12,6 C13.7,6 15.1,6.7 16,8 L13,11 L20,11 L20,4 L18,6 C16.2,5 14.2,4 12,4 Z" id="Shape"></path>
                </g>
            </g>
        </g>
    </g>
</svg>
