
<svg width="50px" height="57px" viewBox="0 0 50 57" version="1.1" xmlns="http://www.w3.org/2000/svg" xmlns:xlink="http://www.w3.org/1999/xlink">
    <defs>
        <polygon id="path-1" points="0.044205 0.2506 28.132405 0.2506 28.132405 28.33845 0.044205 28.33845"></polygon>
    </defs>
    <g id="Screens" stroke="none" stroke-width="1" fill="none" fill-rule="evenodd">
        <g id="HOME-1" transform="translate(-1155.000000, -2544.000000)">
            <g id="Icons" transform="translate(105.000000, 2317.000000)">
                <g id="user" transform="translate(1050.000000, 227.000000)">
                    <g id="Group-6">
                        <g id="Group-3" transform="translate(10.850000, 0.099400)">
                            <mask id="mask-2" fill="white">
                                <use xlink:href="#path-1"></use>
                            </mask>
                            <g id="Clip-2"></g>
                            <path d="M14.069755,3.4426 C10.495205,3.4426 7.782005,4.3148 6.005055,6.0347 C4.167555,7.81305 3.236205,10.59835 3.236205,14.31395 C3.236205,18.0243 4.166855,20.8026 6.002255,22.5708 C7.776055,24.27985 10.490305,25.14645 14.069755,25.14645 C17.653755,25.14645 20.375005,24.2788 22.158255,22.56835 C24.004505,20.79735 24.940405,18.01975 24.940405,14.3136 C24.940405,6.9986 21.384405,3.4426 14.069755,3.4426 M14.069755,28.33845 C9.636305,28.33845 6.176555,27.1712 3.787805,24.8696 C1.303505,22.47665 0.044205,18.92485 0.044205,14.31395 C0.044205,9.70095 1.302805,6.1439 3.785005,3.7415 C6.177955,1.42485 9.638055,0.2506 14.069755,0.2506 C18.503205,0.2506 21.968905,1.42415 24.370605,3.7387 C26.866805,6.14425 28.132405,9.702 28.132405,14.3136 C28.132405,18.9231 26.866105,22.4756 24.368155,24.87205 C21.969955,27.17225 18.505305,28.33845 14.069755,28.33845" id="Fill-1" fill="#003245" mask="url(#mask-2)"></path>
                        </g>
                        <path d="M3.19207,53.257365 L46.68482,53.257365 L46.68482,50.183315 C46.68482,46.560465 45.59492,43.512665 43.53307,41.369615 C41.23812,38.984015 37.85502,37.774415 33.47722,37.774415 L16.36047,37.774415 C11.98652,37.774415 8.61042,38.983315 6.32632,41.367165 C4.27567,43.507415 3.19207,46.555915 3.19207,50.183315 L3.19207,53.257365 Z M48.28047,56.449365 L1.59607,56.449365 C0.71442,56.449365 7e-05,55.734665 7e-05,54.853715 L7e-05,50.183315 C7e-05,45.716615 1.39062,41.904415 4.02157,39.159015 C6.89017,36.165115 11.15702,34.582415 16.36047,34.582415 L33.47722,34.582415 C38.68172,34.582415 42.95452,36.164065 45.83362,39.156565 C48.47857,41.905815 49.87647,45.719065 49.87647,50.183315 L49.87647,54.853715 C49.87647,55.734665 49.16212,56.449365 48.28047,56.449365 L48.28047,56.449365 Z" id="Fill-4" fill="#003245"></path>
                    </g>
                </g>
            </g>
        </g>
    </g>
</svg>
