
<svg width="24px" height="24px" viewBox="0 0 24 24" version="1.1" xmlns="http://www.w3.org/2000/svg" xmlns:xlink="http://www.w3.org/1999/xlink">
    <!-- Generator: Sketch 49.1 (51147) - http://www.bohemiancoding.com/sketch -->
    <desc>Created with Sketch.</desc>
    <defs></defs>
    <g id="Page-1" stroke="none" stroke-width="1" fill="none" fill-rule="evenodd">
        <g id="List" transform="translate(-229.000000, -712.000000)">
            <g id="LIST-OK" transform="translate(214.000000, 516.000000)">
                <g id="Fill-1-Copy" transform="translate(15.000000, 196.000000)">
                    <path d="M2.13936039,2.29373765 C4.40851413,-0.00109429456 7.66127282,-0.00052244509 11.7815482,4.9404384e-05 L12.200724,4.9404384e-05 C16.3198557,-0.00109429456 19.5737581,-0.00109429456 21.84234,2.29373765 C23.9593781,4.43531393 23.9828245,9.55393857 23.9822526,11.8196062 L23.9999804,12.1049591 C24.0005522,14.3300254 24.0022678,19.5407178 21.8606396,21.7057399 C19.6292289,23.9628298 16.4456656,24 12.4237507,24 L12.2173081,24 L11.7998478,24 C7.68014431,23.9977126 4.42681376,24.0011437 2.15651629,21.7057399 C0.0148880694,19.5407178 0.00230707587,14.323735 0.00287893921,12.0986687 L0.00287893921,11.9202517 C-0.000552240841,9.67002402 -0.00226783087,4.45933161 2.13936039,2.29373765 Z" fill="#4A4A4A" fill-rule="evenodd"></path>
                    <g id="Shape" transform="translate(6.000000, 6.000000)" fill="#FFFFFF" fill-rule="nonzero">
                        <path d="M3.6,9.6 C2.94,9.6 2.406,10.14 2.406,10.8 C2.406,11.46 2.94,12 3.6,12 C4.26,12 4.8,11.46 4.8,10.8 C4.8,10.14 4.26,9.6 3.6,9.6 Z M0,0 L0,1.2 L1.2,1.2 L3.36,5.754 L2.55,7.224 C2.454,7.392 2.4,7.59 2.4,7.8 C2.4,8.46 2.94,9 3.6,9 L10.8,9 L10.8,7.8 L3.852,7.8 C3.768,7.8 3.702,7.734 3.702,7.65 L3.72,7.578 L4.26,6.6 L8.73,6.6 C9.18,6.6 9.576,6.354 9.78,5.982 L11.928,2.088 C11.976,2.004 12,1.902 12,1.8 C12,1.47 11.73,1.2 11.4,1.2 L2.526,1.2 L1.962,0 L0,0 Z M9.6,9.6 C8.94,9.6 8.406,10.14 8.406,10.8 C8.406,11.46 8.94,12 9.6,12 C10.26,12 10.8,11.46 10.8,10.8 C10.8,10.14 10.26,9.6 9.6,9.6 Z"></path>
                    </g>
                </g>
            </g>
        </g>
    </g>
</svg>
