
<svg width="24px" height="29px" viewBox="0 0 24 29" version="1.1" xmlns="http://www.w3.org/2000/svg" xmlns:xlink="http://www.w3.org/1999/xlink">
    <!-- Generator: Sketch 49.1 (51147) - http://www.bohemiancoding.com/sketch -->
    <desc>Created with Sketch.</desc>
    <defs></defs>
    <g id="COMPONENTS:-BUTTONS" stroke-width="1" fill-rule="evenodd">
        <g id="Desk–HD-1440-ui-menu" transform="translate(-1400.000000, -1232.000000)">
            <path d="M1421.75,1251.03125 C1421.75,1251.52969 1421.34219,1251.9375 1420.84375,1251.9375 L1418.125,1251.9375 L1418.125,1247.40625 C1418.125,1247.16519 1418.02894,1246.935 1417.86037,1246.76463 L1410.61037,1239.51463 C1410.44,1239.34606 1410.20981,1239.25 1409.96875,1239.25 L1407.25,1239.25 L1407.25,1234.71875 C1407.25,1234.2185 1407.656,1233.8125 1408.15625,1233.8125 L1414.5,1233.8125 L1414.5,1239.25 C1414.5,1240.24869 1415.312,1241.0625 1416.3125,1241.0625 L1421.75,1241.0625 L1421.75,1251.03125 Z M1410.875,1246.5 L1410.875,1242.34394 L1415.03106,1246.5 L1410.875,1246.5 Z M1416.3125,1258.28125 C1416.3125,1258.77969 1415.90469,1259.1875 1415.40625,1259.1875 L1402.71875,1259.1875 C1402.2185,1259.1875 1401.8125,1258.77969 1401.8125,1258.28125 L1401.8125,1241.96875 C1401.8125,1241.4685 1402.2185,1241.0625 1402.71875,1241.0625 L1409.0625,1241.0625 L1409.0625,1246.5 C1409.0625,1247.49869 1409.87631,1248.3125 1410.875,1248.3125 L1416.3125,1248.3125 L1416.3125,1258.28125 Z M1416.3125,1235.09394 L1420.46856,1239.25 L1416.3125,1239.25 L1416.3125,1235.09394 Z M1423.29787,1239.51463 L1416.04787,1232.26463 C1415.8775,1232.09606 1415.64731,1232 1415.40625,1232 L1408.15625,1232 C1406.65731,1232 1405.4375,1233.21981 1405.4375,1234.71875 L1405.4375,1239.25 L1402.71875,1239.25 C1401.21981,1239.25 1400,1240.46981 1400,1241.96875 L1400,1258.28125 C1400,1259.78019 1401.21981,1261 1402.71875,1261 L1415.40625,1261 C1416.90519,1261 1418.125,1259.78019 1418.125,1258.28125 L1418.125,1253.75 L1420.84375,1253.75 C1422.34269,1253.75 1423.5625,1252.53019 1423.5625,1251.03125 L1423.5625,1240.15625 C1423.5625,1239.91519 1423.46644,1239.685 1423.29787,1239.51463 Z" id="Fill-1"></path>
        </g>
    </g>
</svg>
