
<svg width="24px" height="24px" viewBox="0 0 24 24" version="1.1" xmlns="http://www.w3.org/2000/svg" xmlns:xlink="http://www.w3.org/1999/xlink">
    <!-- Generator: Sketch 49.1 (51147) - http://www.bohemiancoding.com/sketch -->
    <desc>Created with Sketch.</desc>
    <defs></defs>
    <g id="Page-1" stroke="none" stroke-width="1" fill-rule="evenodd">
        <g id="Switch-Copy-9" transform="translate(-142.000000, -545.000000)" fill-rule="nonzero">
            <g id="Group" transform="translate(130.000000, 497.000000)">
                <g id="ic-driving" transform="translate(12.000000, 48.000000)">
                    <path d="M12,24 C5.372583,24 8.11624501e-16,18.627417 0,12 C-8.11624501e-16,5.372583 5.372583,1.21743675e-15 12,0 C18.627417,-1.21743675e-15 24,5.372583 24,12 C24,15.1825979 22.7357179,18.2348448 20.4852814,20.4852814 C18.2348448,22.7357179 15.1825979,24 12,24 Z M12,2.32 C6.65388362,2.32 2.32,6.65388362 2.32,12 C2.32,17.3461164 6.65388362,21.68 12,21.68 C17.3461164,21.68 21.68,17.3461164 21.68,12 C21.674488,6.65616841 17.3438316,2.32551195 12,2.32 Z" id="Shape"></path>
                    <path d="M19.94,9.75 C19.7972662,9.23305537 19.4302723,8.80734246 18.94,8.59 C14.5421038,6.72759972 9.58736709,6.67370483 5.15,8.44 C4.6908259,8.61780417 4.32780417,8.9808259 4.15,9.44 C3.92,10.8 3.86,12.18 3.71,13.68 C7.87,13.86 9.61,16.19 9.91,19.92 L14,19.92 C14.32,16.21 16,13.92 20.23,13.76 C20.16,12.31 20.15,11 19.94,9.75 Z M11.84,12.88 C11.2121894,12.8840505 10.6439413,12.508984 10.4008767,11.9301212 C10.1578122,11.3512583 10.2879439,10.6829422 10.7304433,10.2375694 C11.1729426,9.7921967 11.8404025,9.65774211 12.4208265,9.89705491 C13.0012504,10.1363677 13.3799869,10.7021763 13.38,11.33 C13.3800177,12.1821513 12.6921335,12.8745023 11.84,12.88 Z" id="Shape"></path>
                </g>
            </g>
        </g>
    </g>
</svg>
