
<svg width="24px" height="24px" viewBox="0 0 24 24" version="1.1" xmlns="http://www.w3.org/2000/svg" xmlns:xlink="http://www.w3.org/1999/xlink">
    <!-- Generator: Sketch 49.1 (51147) - http://www.bohemiancoding.com/sketch -->
    <desc>Created with Sketch.</desc>
    <defs></defs>
    <g id="Page-1" stroke="none" stroke-width="1" fill-rule="evenodd">
        <g id="Switch-Copy-9" transform="translate(-144.000000, -689.000000)" fill-rule="nonzero">
            <g id="Group" transform="translate(130.000000, 497.000000)">
                <g id="Shape-Copy-4" transform="translate(14.000000, 192.000000)">
                    <path d="M23.0911243,3.96631579 L19.1715976,0 L18.0071006,0.909473684 L20.7337278,3.68842105 C19.0863905,3.76421053 17.808284,5.07789474 18.0071006,6.56842105 C18.1491124,7.70526316 19.2,8.66526316 20.4781065,8.84210526 C21.1881657,8.91789474 21.8698225,8.79157895 22.4094675,8.46315789 L22.4094675,18.2652632 C22.4094675,18.8968421 21.8982249,19.5031579 21.1597633,19.5536842 C20.3360947,19.6294737 19.6544379,19.0736842 19.6544379,18.3157895 L19.6544379,13.9452632 C19.6544379,12.6568421 18.5467456,11.4442105 17.0982249,11.4442105 L16.7573964,11.4189474 L16.7289941,3.96631579 C16.7289941,2.17263158 14.8544379,0.884210526 12.8094675,0.884210526 L5.82248521,0.884210526 C3.80591716,0.884210526 2.13017751,2.34947368 2.13017751,4.16842105 L2.13017751,21.7263158 L0,21.7263158 L0,24 L4.40236686,24 L14.2863905,24 L18.9159763,24 L18.9159763,21.7263158 L16.8142012,21.7263158 L16.7573964,12.7578947 C16.8426036,12.7578947 16.956213,12.7578947 16.9846154,12.7578947 C17.2402367,12.7578947 17.4674556,12.7831579 17.6662722,12.9347368 C17.9218935,13.1115789 18.0923077,13.3894737 18.1491124,13.6673684 C18.1775148,13.7684211 18.1775148,13.8442105 18.1775148,13.9452632 L18.1775148,18.2147368 C18.1775148,19.6042105 19.3420118,20.8168421 20.8757396,20.8926316 C22.5514793,20.9936842 24,19.8063158 24,18.2905263 L24,6.08842105 C24,5.30526316 23.6591716,4.52210526 23.0911243,3.96631579 Z M20.9609467,7.50315789 C20.1940828,7.50315789 19.5692308,6.94736842 19.5692308,6.26526316 C19.5692308,5.58315789 20.1940828,5.02736842 20.9609467,5.02736842 C21.7278107,5.02736842 22.3526627,5.58315789 22.3526627,6.26526316 C22.3526627,6.94736842 21.6710059,7.50315789 20.9609467,7.50315789 Z M4.68639053,4.77473684 C4.68639053,4.16842105 5.2260355,3.68842105 5.90769231,3.68842105 L12.9514793,3.68842105 C13.6331361,3.68842105 14.1727811,4.16842105 14.1727811,4.77473684 L14.1727811,8.86736842 L4.68639053,8.86736842 L4.68639053,4.77473684 Z"></path>
                </g>
            </g>
        </g>
    </g>
</svg>
