
<svg width="24px" height="24px" viewBox="0 0 24 24" version="1.1" xmlns="http://www.w3.org/2000/svg" xmlns:xlink="http://www.w3.org/1999/xlink">
    <!-- Generator: Sketch 49.1 (51147) - http://www.bohemiancoding.com/sketch -->
    <desc>Created with Sketch.</desc>
    <defs></defs>
    <g id="Page-1" stroke="none" stroke-width="1" fill="none" fill-rule="evenodd">
        <g id="List" transform="translate(-229.000000, -552.000000)">
            <g id="LIST-OK" transform="translate(214.000000, 516.000000)">
                <g id="ic_local_hotel" transform="translate(15.000000, 36.000000)">
                    <g id="ic_local_hotel_black_24px-copy-3">
                        <g>
                            <g id="Group-2-Copy" fill="#4E4E4E">
                                <path d="M1.96225017e-05,11.991161 L1.96225017e-05,11.8950903 C-0.000552240841,9.67002402 -0.00226783087,4.45933161 2.13936039,2.29373765 C4.40851413,-0.00109429456 7.66127282,-0.00052244509 11.7815482,4.9404384e-05 L12.200724,4.9404384e-05 C16.3198557,-0.00109429456 19.5737581,-0.00109429456 21.84234,2.29373765 C23.9593781,4.43531393 23.9828245,9.55393857 23.9822526,11.8196062 L23.9999804,11.8373335 L23.9999804,12.1049591 C24.0005522,14.3300254 24.0022678,19.5407178 21.8606396,21.7057399 C19.6292289,23.9628298 16.4456656,24 12.4237507,24 L12.2173081,24 L11.7998478,24 C7.68014431,23.9977126 4.42681376,24.0011437 2.15651629,21.7057399 C0.0148880694,19.5407178 0.00230707587,14.323735 0.00287893921,12.0986687 L0.00287893921,11.9202517" id="Fill-1-Copy"></path>
                            </g>
                            <path d="M9.54545455,12.8 C10.5263636,12.8 11.3181818,11.996 11.3181818,11 C11.3181818,10.004 10.5263636,9.2 9.54545455,9.2 C8.56454545,9.2 7.77272727,10.004 7.77272727,11 C7.77272727,11.996 8.56454545,12.8 9.54545455,12.8 Z M16.6363636,9.2 L11.9090909,9.2 L11.9090909,13.4 L7.18181818,13.4 L7.18181818,8 L6,8 L6,17 L7.18181818,17 L7.18181818,15.2 L17.8181818,15.2 L17.8181818,17 L19,17 L19,11.6 C19,10.274 17.9422727,9.2 16.6363636,9.2 Z" id="Shape" fill="#FFFFFF" fill-rule="nonzero"></path>
                        </g>
                    </g>
                </g>
            </g>
        </g>
    </g>
</svg>
