
<svg width="17px" height="19px" viewBox="0 0 17 19" version="1.1" xmlns="http://www.w3.org/2000/svg" xmlns:xlink="http://www.w3.org/1999/xlink">
    <!-- Generator: Sketch 49.1 (51147) - http://www.bohemiancoding.com/sketch -->
    <desc>Created with Sketch.</desc>
    <defs></defs>
    <g id="Page-1" stroke="none" stroke-width="1" fill="none" fill-rule="evenodd">
        <g id="ZOOM" transform="translate(-254.000000, -468.000000)" fill="#FFFFFF">
            <g id="ZOOM-Copy-5" transform="translate(249.000000, 397.000000)">
                <g id="zoom-copy-2" transform="translate(0.000000, 67.000000)">
                    <g id="Fill-1" transform="translate(5.000000, 4.000000)">
                        <path d="M15.3889789,12.5413678 C15.3845243,12.5674887 15.3816287,12.5938387 15.3798469,12.6211053 C15.2219301,15.4167303 12.9634311,17.6065335 10.238532,17.6065335 C8.84556817,17.6065335 7.54058337,17.0431008 6.56390504,16.0202609 C6.56256865,16.0188861 6.56123226,16.0172822 6.55967314,16.0159074 L1.81994341,11.1400038 C1.68496803,11.0011505 1.61057565,10.8164711 1.61057565,10.620106 C1.61057565,10.4237409 1.68496803,10.2390614 1.81994341,10.1002082 C1.95937343,9.95677227 2.14223612,9.88528346 2.32532155,9.88528346 C2.50840697,9.88528346 2.6914924,9.9570014 2.83069969,10.1002082 L4.66066301,11.9825177 C4.84642121,12.173842 5.12594944,12.2308955 5.36872695,12.1275576 C5.61194993,12.0239904 5.77008941,11.7801952 5.77008941,11.5098209 L5.77008941,2.12897644 C5.77008941,1.72341491 6.090823,1.39369568 6.4848353,1.39369568 C6.87907034,1.39369568 7.1995812,1.72364404 7.1995812,2.12897644 L7.1995812,5.6390313 L7.1995812,8.44702937 C7.1995812,8.81638823 7.49069148,9.11563307 7.84951219,9.11563307 C8.20833289,9.11563307 8.49944317,8.8161591 8.49944317,8.44702937 L8.49944317,5.6390313 C8.49944317,5.23346977 8.82039949,4.90375054 9.21418907,4.90375054 C9.60842411,4.90375054 9.92893497,5.2336989 9.92893497,5.6390313 L9.92893497,7.0431449 L9.92893497,8.4472585 C9.92893497,8.81661736 10.2200452,9.1158622 10.578866,9.1158622 C10.9379094,9.1158622 11.2287969,8.81638823 11.2287969,8.4472585 L11.2287969,7.0431449 C11.2287969,6.63758337 11.5497533,6.30786414 11.9435428,6.30786414 C12.3380006,6.30786414 12.6582887,6.6378125 12.6582887,7.0431449 L12.6582887,8.4472585 L12.6582887,9.1493153 C12.6582887,9.51867416 12.949399,9.817919 13.3082197,9.817919 C13.6674859,9.817919 13.9581507,9.51844503 13.9581507,9.1493153 L13.9581507,8.4472585 C13.9581507,8.0419261 14.279107,7.71197773 14.6728966,7.71197773 C15.0671316,7.71197773 15.3876425,8.0419261 15.3876425,8.4472585 L15.3876425,12.5413678 L15.3889789,12.5413678 Z M14.674233,6.37431207 C14.3993821,6.37431207 14.1370042,6.43113651 13.8982359,6.53424537 C13.6770633,5.63651086 12.8852523,4.97019847 11.9444338,4.97019847 C11.6695829,4.97019847 11.407205,5.02702291 11.1684367,5.13013178 C10.9474868,4.23239727 10.1552303,3.56608488 9.21485726,3.56608488 C8.96317049,3.56608488 8.72217483,3.61374408 8.50011137,3.70081379 L8.50011137,2.12897644 C8.50011137,0.986071966 7.59626629,0.0562591437 6.48528077,0.0562591437 C5.37429525,0.0562591437 4.47045017,0.986071966 4.47045017,2.12897644 L4.47045017,9.89559434 L3.75035871,9.15481444 C2.96478415,8.34667007 1.68652715,8.34667007 0.900952582,9.15481444 C0.520304175,9.54639899 0.310936414,10.0667551 0.310936414,10.6203351 C0.310936414,11.1739151 0.520526906,11.6945003 0.900952582,12.0858557 L5.638455,16.9594681 C6.86125181,18.2391636 8.49476581,18.9437409 10.238532,18.9437409 C13.6113575,18.9437409 16.4133218,16.2647434 16.6696859,12.8218239 C16.6826044,12.7695821 16.6890636,12.7152781 16.6890636,12.659141 L16.6890636,8.44702937 C16.6890636,7.30412489 15.7852185,6.37431207 14.674233,6.37431207 Z"></path>
                    </g>
                </g>
            </g>
        </g>
    </g>
</svg>
