
<svg width="19px" height="21px" viewBox="0 0 19 21" version="1.1" xmlns="http://www.w3.org/2000/svg" xmlns:xlink="http://www.w3.org/1999/xlink">
    <!-- Generator: Sketch 49.1 (51147) - http://www.bohemiancoding.com/sketch -->
    <desc>Created with Sketch.</desc>
    <defs></defs>
    <g id="Page-1" stroke="none" stroke-width="1" fill="none" fill-rule="evenodd">
        <g id="Info-navigation-ok" transform="translate(-502.000000, -507.000000)">
            <g id="PDF" transform="translate(502.000000, 507.000000)">
                <g transform="translate(0.000000, 0.272078)">
                    <path d="M17.0999786,8.01123596 L1.89999762,8.01123596 C0.85065791,8.01123596 0,9.01733764 0,10.258427 L0,14.752809 C0,15.9938983 0.85065791,17 1.89999762,17 L17.0999786,17 C18.1493183,17 18.9999762,15.9938983 18.9999762,14.752809 L18.9999762,10.258427 C19.002504,9.66049046 18.8034428,9.08601786 18.4468497,8.66215454 C18.0902567,8.23829122 17.6055396,7.99999253 17.0999786,8 L17.0999786,8.01123596 Z" id="Path" fill="#999999"></path>
                    <path d="M16.3846154,8.16470588 L16.3846154,2.55686275 C16.3866632,2.19148308 16.2457412,1.84035157 15.993066,1.58124988 C15.7403909,1.32214819 15.3968205,1.17646462 15.0384615,1.17647059 L5.96923077,1.17647059 L5.96923077,2.96470588 C5.96501177,4.15412189 5.02038878,5.1172669 3.85384615,5.12156863 L2.15384615,5.12156863 L2.15384615,17.4509804 C2.15384615,18.2090183 2.75653976,18.8235294 3.5,18.8235294 L15.0384615,18.8235294 C15.7819218,18.8235294 16.3846154,18.2090183 16.3846154,17.4509804 L16.3846154,15.0666667 L17.5384615,15.0666667 L17.5384615,17.4509804 C17.5342381,18.8569775 16.4174202,19.9956937 15.0384615,20 L3.5,20 C2.12104134,19.9956937 1.00422349,18.8569775 1,17.4509804 L1,4.64313725 C1.00096602,4.48735065 1.0617112,4.33814056 1.16923077,4.22745098 L5.14615385,0.17254902 C5.25424412,0.0622019707 5.40088819,0.000137295718 5.55384615,0 L15.0384615,0 C16.4174202,0.00430629999 17.5342381,1.14302254 17.5384615,2.54901961 L17.5384615,8.15686275 L16.3846154,8.16470588 Z" id="Shape-Copy-2" fill="#999999" fill-rule="nonzero"></path>
                    <path d="M2.592,9.528 L4.472,9.528 C4.90933552,9.528 5.2679986,9.56266632 5.548,9.632 C5.8280014,9.70133368 6.05333248,9.8159992 6.224,9.976 C6.5173348,10.2480014 6.664,10.6746638 6.664,11.256 C6.664,11.8373362 6.52800136,12.2799985 6.256,12.584 C6.0959992,12.7653342 5.89066792,12.8986662 5.64,12.984 C5.38933208,13.0693338 5.08266848,13.112 4.72,13.112 L3.84,13.112 L3.84,15 L2.592,15 L2.592,9.528 Z M4.456,12.176 C4.65333432,12.176 4.80399948,12.1613335 4.908,12.132 C5.01200052,12.1026665 5.1039996,12.0480004 5.184,11.968 C5.32800072,11.8239993 5.4,11.5920016 5.4,11.272 C5.4,10.9733318 5.33066736,10.757334 5.192,10.624 C5.11733296,10.5546663 5.01866728,10.5053335 4.896,10.476 C4.77333272,10.4466665 4.61600096,10.432 4.424,10.432 L3.84,10.432 L3.84,12.176 L4.456,12.176 Z M7.544,9.528 L9.232,9.528 C9.765336,9.528 10.2066649,9.5746662 10.556,9.668 C10.9053351,9.7613338 11.1919989,9.91999888 11.416,10.144 C11.8586689,10.5760022 12.08,11.2746618 12.08,12.24 C12.08,12.7360025 12.0253339,13.1586649 11.916,13.508 C11.8066661,13.8573351 11.6400011,14.1493322 11.416,14.384 C11.2133323,14.592001 10.9480016,14.7466662 10.62,14.848 C10.2919984,14.9493338 9.88533576,15 9.4,15 L7.544,15 L7.544,9.528 Z M9.32,14.088 C9.88533616,14.088 10.2773322,13.925335 10.496,13.6 C10.6026672,13.4399992 10.6773331,13.2586677 10.72,13.056 C10.7626669,12.8533323 10.784,12.581335 10.784,12.24 C10.784,11.8559981 10.754667,11.5573344 10.696,11.344 C10.637333,11.1306656 10.5386674,10.9493341 10.4,10.8 C10.2773327,10.6719994 10.120001,10.5800003 9.928,10.524 C9.73599904,10.4679997 9.48533488,10.44 9.176,10.44 L8.792,10.44 L8.792,14.088 L9.32,14.088 Z M13.032,9.528 L16.64,9.528 L16.544,10.432 L14.28,10.432 L14.28,11.76 L16.072,11.76 L16.072,12.696 L14.28,12.696 L14.28,15 L13.032,15 L13.032,9.528 Z" fill="#FFFFFF"></path>
                </g>
            </g>
        </g>
    </g>
</svg>
