
<svg width="22px" height="14px" viewBox="0 0 22 14" version="1.1" xmlns="http://www.w3.org/2000/svg" xmlns:xlink="http://www.w3.org/1999/xlink">
    <!-- Generator: Sketch 49.1 (51147) - http://www.bohemiancoding.com/sketch -->
    <desc>Created with Sketch.</desc>
    <defs></defs>
    <g id="Page-1" stroke="none" stroke-width="1" fill="none" fill-rule="evenodd">
        <g id="Text-field-Copy" transform="translate(-995.000000, -632.000000)" fill="#00EEAA" fill-rule="nonzero">
            <g id="password-visible" transform="translate(815.000000, 605.000000)">
                <g id="Outline" transform="translate(180.000000, 27.000000)">
                    <g id="Shape">
                        <path d="M1.57266239,8.23742049 L1.57266239,8.23742049 L1.56903645,5.7615986 C1.59870067,5.79912788 1.66827709,5.88432774 1.77488937,6.01026276 C1.95977805,6.22866126 2.17616223,6.47424218 2.42106998,6.74003745 C3.12363333,7.50252053 3.90675193,8.26564229 4.74417051,8.97328756 C6.97622138,10.8594414 9.15039862,11.9734528 10.9666473,11.9995326 C10.9991657,11.9999221 10.9991657,11.9999221 11.0315705,12 C12.8571107,12 15.0415886,10.8856311 17.2816417,8.97817218 C18.1117573,8.27130876 18.8872011,7.50896331 19.5821706,6.74726314 C19.8244177,6.48175555 20.0383394,6.23645763 20.2210229,6.01833928 C20.3263019,5.89263956 20.3949232,5.80767055 20.4240707,5.7703691 L20.4270787,8.23709084 C20.3976769,8.19965269 20.3285904,8.11452097 20.222664,7.98863546 C20.0389131,7.77026114 19.8238,7.52469204 19.5802661,7.25890083 C18.8816284,6.49641257 18.1024777,5.73328374 17.2688357,5.02566643 C15.0190331,3.11597479 12.8276956,2 11.0011865,2 C10.9999565,2.00000011 10.9999565,2.00000011 10.9987263,2.00000068 C9.17257222,2.00100311 6.98162805,3.11696986 4.73213449,5.02585008 C3.89821801,5.73349677 3.11877882,6.49665478 2.41985576,7.25917245 C2.17622186,7.52497447 1.96101628,7.7705542 1.77718242,7.98893904 C1.67120599,8.1148334 1.60208355,8.19997379 1.57266239,8.23742049 L1.57266239,8.23742049 Z M0,7.00181012 C0,7.00181012 5.50118655,0 11.0011865,0 C16.5011865,0 22,7.00181012 22,7.00181012 C22,7.00181012 16.5315705,14 11.0315705,14 C5.53157048,14 0,7.00181012 0,7.00181012 L0,7.00181012 Z M11,10 C12.6568542,10 14,8.65685425 14,7 C14,5.34314575 12.6568542,4 11,4 C9.34314575,4 8,5.34314575 8,7 C8,8.65685425 9.34314575,10 11,10 Z"></path>
                    </g>
                </g>
            </g>
        </g>
    </g>
</svg>
