
<svg width="18px" height="24px" viewBox="0 0 18 24" version="1.1" xmlns="http://www.w3.org/2000/svg" xmlns:xlink="http://www.w3.org/1999/xlink">
    <!-- Generator: Sketch 49.1 (51147) - http://www.bohemiancoding.com/sketch -->
    <desc>Created with Sketch.</desc>
    <defs></defs>
    <g id="Page-1" stroke="none" stroke-width="1" fill-rule="evenodd">
        <g id="Switch-Copy-9" transform="translate(-145.000000, -593.000000)">
            <g id="Group" transform="translate(130.000000, 497.000000)">
                <g id="Combined-Shape-Copy" transform="translate(15.000000, 96.000000)">
                    <path d="M9,0 C13.9744074,0 18,3.74339174 18,8.36709237 C18,9.90792991 17.5275556,11.2289872 16.816926,12.3302643 C16.5800494,12.7710128 16.3418642,12.990793 16.1062964,13.4315414 L9,24 L1.89501236,13.4315414 C1.65813582,12.990793 1.42125927,12.7710128 1.18438273,12.3302643 C0.47375309,11.2289872 0,9.90792991 0,8.36709237 C0,3.74339174 4.02559255,0 9,0 Z M4.8,8.18181818 C4.8,10.2898714 6.68013029,12 9.00065147,12 C11.3198697,12 13.2,10.2898714 13.2,8.18181818 C13.2,6.07376494 11.3198697,4.36363636 9.00065147,4.36363636 C6.68013029,4.36363636 4.8,6.07376494 4.8,8.18181818 Z"></path>
                </g>
            </g>
        </g>
    </g>
</svg>
