
<svg width="10px" height="18px" viewBox="0 0 10 18" version="1.1" xmlns="http://www.w3.org/2000/svg" xmlns:xlink="http://www.w3.org/1999/xlink">
    <!-- Generator: Sketch 49.1 (51147) - http://www.bohemiancoding.com/sketch -->
    <desc>Created with Sketch.</desc>
    <defs></defs>
    <g id="Page-1" stroke="none" stroke-width="1" fill="none" fill-rule="evenodd">
        <g id="Info-navigation-ok" transform="translate(-417.000000, -508.000000)" fill="#999999">
            <path d="M420.432,520.880078 C420.384,520.616078 420.36,520.352078 420.36,520.136078 C420.36,518.888078 420.672,518.048078 421.944,516.560078 L422.232,516.224078 C423.384,514.880078 424.008,513.920078 424.008,512.576078 C424.008,511.808078 423.768,511.232078 423.336,510.872078 C422.856,510.464078 422.16,510.272078 421.056,510.272078 C420.096,510.272078 419.016,510.416078 418.176,510.632078 L417.864,509.072078 C419.04,508.712078 420.216,508.544078 421.344,508.544078 C423.096,508.544078 424.296,508.952078 425.088,509.696078 C425.76,510.344078 426.12,511.232078 426.12,512.312078 C426.12,514.040078 425.4,515.216078 424.032,516.776078 C422.448,518.600078 421.968,519.152078 421.896,520.880078 L420.432,520.880078 Z M421.2,525.608078 C420.432,525.608078 420,525.272078 420,524.432078 L420,524.240078 C420,523.400078 420.432,523.064078 421.2,523.064078 L421.32,523.064078 C422.088,523.064078 422.52,523.400078 422.52,524.240078 L422.52,524.432078 C422.52,525.272078 422.088,525.608078 421.32,525.608078 L421.2,525.608078 Z" id="?"></path>
        </g>
    </g>
</svg>
