
<svg width="24px" height="24px" viewBox="0 0 24 24" version="1.1" xmlns="http://www.w3.org/2000/svg" xmlns:xlink="http://www.w3.org/1999/xlink">
    <!-- Generator: Sketch 49.1 (51147) - http://www.bohemiancoding.com/sketch -->
    <desc>Created with Sketch.</desc>
    <defs></defs>
    <g id="Page-1" stroke="none" stroke-width="1" fill="none" fill-rule="evenodd">
        <g id="List" transform="translate(-229.000000, -834.000000)">
            <g id="LIST-OK" transform="translate(214.000000, 516.000000)">
                <g id="Fill-1-Copy" transform="translate(15.000000, 318.000000)">
                    <path d="M1.96225017e-05,11.991161 L1.96225017e-05,11.8950903 C-0.000552240841,9.67002402 -0.00226783087,4.45933161 2.13936039,2.29373765 C4.40851413,-0.00109429456 7.66127282,-0.00052244509 11.7815482,4.9404384e-05 L12.200724,4.9404384e-05 C16.3198557,-0.00109429456 19.5737581,-0.00109429456 21.84234,2.29373765 C23.9593781,4.43531393 23.9828245,9.55393857 23.9822526,11.8196062 L23.9999804,11.8373335 L23.9999804,12.1049591 C24.0005522,14.3300254 24.0022678,19.5407178 21.8606396,21.7057399 C19.6292289,23.9628298 16.4456656,24 12.4237507,24 L12.2173081,24 L11.7998478,24 C7.68014431,23.9977126 4.42681376,24.0011437 2.15651629,21.7057399 C0.0148880694,19.5407178 0.00230707587,14.323735 0.00287893921,12.0986687 L0.00287893921,11.9202517" fill="#4A4A4A" fill-rule="evenodd"></path>
                    <path d="M12,10.2 L11,10.2 L11,6 L10,6 L10,10.2 L9,10.2 L9,6 L8,6 L8,10.2 C8,11.472 8.83,12.504 9.875,12.582 L9.875,18 L11.125,18 L11.125,12.582 C12.17,12.504 13,11.472 13,10.2 L13,6 L12,6 L12,10.2 Z M14.5,8.4 L14.5,13.2 L15.75,13.2 L15.75,18 L17,18 L17,6 C15.62,6 14.5,7.344 14.5,8.4 Z" id="Shape" fill="#FFFFFF" fill-rule="nonzero"></path>
                </g>
            </g>
        </g>
    </g>
</svg>
