<?xml version="1.0" encoding="UTF-8"?>
<svg width="20px" height="20px" viewBox="0 0 20 20" version="1.1" xmlns="http://www.w3.org/2000/svg" xmlns:xlink="http://www.w3.org/1999/xlink">
    <!-- Generator: Sketch 49.1 (51147) - http://www.bohemiancoding.com/sketch -->
    <title>search icon</title>
    <desc>Created with Sketch.</desc>
    <defs>
        <path d="M188.167161,50.4903785 L184.143404,46.5190289 C185.275357,45.0979742 185.956485,43.3100962 185.956485,41.3670633 C185.956485,36.7535162 182.153252,33 177.478785,33 C172.803232,33 169,36.7535162 169,41.3670633 C169,45.9795829 172.803232,49.7330991 177.478785,49.7330991 C179.310333,49.7330991 181.003918,49.14947 182.392244,48.1712747 L186.454023,52.1806424 C186.690842,52.4138885 187.000445,52.5299979 187.311135,52.5299979 C187.620738,52.5299979 187.930341,52.4138885 188.167161,52.1806424 C188.639713,51.7141501 188.639713,50.9578983 188.167161,50.4903785 L188.167161,50.4903785 Z M171.421424,41.3670633 C171.421424,38.0718193 174.139415,35.3910299 177.478785,35.3910299 C180.818156,35.3910299 183.533974,38.0718193 183.533974,41.3670633 C183.533974,44.6623073 180.818156,47.3420692 177.478785,47.3420692 C174.139415,47.3420692 171.421424,44.6623073 171.421424,41.3670633 L171.421424,41.3670633 Z" id="path-1"></path>
    </defs>
    <g id="ASSETS-welcome-+-home" stroke="none" stroke-width="1" fill="none" fill-rule="evenodd">
        <g id="Desk–HD-1440-X-1024-interaction-3" transform="translate(-191.000000, -33.000000)">
            <g id="header-&gt;-search" transform="translate(22.000000, 0.000000)">
                <g id="search-icon">
                    <use fill="#999999" fill-rule="evenodd" xlink:href="#path-1"></use>
                    <path stroke="#999999" stroke-width="2" d="M187.464101,51.2015097 L182.801062,46.5992041 L183.361224,45.8959766 C184.389141,44.6055292 184.956485,43.0269607 184.956485,41.3670633 C184.956485,37.308793 181.603917,34 177.478785,34 C173.352716,34 170,37.3086471 170,41.3670633 C170,45.4245919 173.352859,48.7330991 177.478785,48.7330991 C179.049718,48.7330991 180.550207,48.2458573 181.816269,47.3538079 L182.499728,46.8722522 L183.094745,47.4595913 L187.155734,51.4681811 C187.19672,51.5085486 187.250484,51.5299979 187.311135,51.5299979 C187.370725,51.5299979 187.42448,51.5085322 187.464632,51.4689871 C187.540604,51.3939898 187.540687,51.2775339 187.464101,51.2015097 Z M170.421424,41.3670633 C170.421424,37.5167123 173.589903,34.3910299 177.478785,34.3910299 C181.367363,34.3910299 184.533974,37.5164168 184.533974,41.3670633 C184.533974,45.2175682 181.367509,48.3420692 177.478785,48.3420692 C173.589757,48.3420692 170.421424,45.2172728 170.421424,41.3670633 Z"></path>
                </g>
            </g>
        </g>
    </g>
</svg>