
<svg width="74px" height="51px" viewBox="0 0 74 51" version="1.1" xmlns="http://www.w3.org/2000/svg" xmlns:xlink="http://www.w3.org/1999/xlink">
    <!-- Generator: Sketch 49.1 (51147) - http://www.bohemiancoding.com/sketch -->
    <desc>Created with Sketch.</desc>
    <defs></defs>
    <g id="Tooltips" stroke="none" stroke-width="1" fill="none" fill-rule="evenodd">
        <g id="Desk–HD-1440px-TOOLTIPS-look-&amp;-feel" transform="translate(-615.000000, -2257.000000)" fill="#9B9B9B">
            <g id="typo" transform="translate(615.000000, 2257.000000)">
                <path d="M0.296,50 L15.92,0.752 L23.264,0.752 L40.256,50 L33.56,50 L29.24,36.896 L10.592,36.896 L6.56,50 L0.296,50 Z M12.176,31.856 L27.584,31.856 L19.664,7.52 L19.592,7.52 L12.176,31.856 Z M56.744,51.008 C52.928,51.008 49.688,49.856 47.528,47.624 C45.8,45.824 44.72,43.304 44.72,39.992 C44.72,36.68 45.872,34.088 47.744,32.36 C50.408,29.912 54.584,28.976 59.696,28.976 L67.04,28.976 L67.04,26.744 C67.04,23.864 66.536,22.064 65.24,20.768 C63.728,19.328 61.424,18.68 57.896,18.68 C55.232,18.68 51.848,18.968 48.392,19.544 L48.176,14.936 C51.488,14.144 55.52,13.712 58.904,13.712 C64.16,13.712 67.688,14.864 69.92,16.952 C72.152,19.112 73.016,21.92 73.016,26.528 L73.016,50 L68.192,50 L67.832,47.624 C64.736,49.64 60.992,51.008 56.744,51.008 Z M58.04,46.184 C60.92,46.184 64.448,45.176 67.04,43.88 L67.04,33.368 L60.56,33.368 C56.888,33.368 54.368,33.872 52.712,35.168 C51.488,36.176 50.768,37.688 50.768,39.848 C50.768,44.096 53.432,46.184 58.04,46.184 Z" id="Aa"></path>
            </g>
        </g>
    </g>
</svg>
