
<svg width="22px" height="24px" viewBox="0 0 22 24" version="1.1" xmlns="http://www.w3.org/2000/svg" xmlns:xlink="http://www.w3.org/1999/xlink">
    <!-- Generator: Sketch 49.1 (51147) - http://www.bohemiancoding.com/sketch -->
    <desc>Created with Sketch.</desc>
    <defs></defs>
    <g id="Page-1" stroke="none" stroke-width="1" fill-rule="evenodd">
        <g id="Switch-Copy-9" transform="translate(-143.000000, -641.000000)">
            <g id="Group" transform="translate(130.000000, 497.000000)">
                <g id="ic-traffic-volume" transform="translate(13.000000, 144.000000)">
                    <g id="Group-6">
                        <path d="M14.42496,6.0576 C14.2714072,6.0581678 14.1209841,6.01814391 13.992,5.9424 C12.0835345,4.68375717 9.50110551,4.68375717 7.59264,5.9424 C7.22701959,6.16834873 6.72981086,6.08732843 6.47328,5.76 C6.26853632,5.4311085 6.37393202,5.0145247 6.71616,4.8 C9.15419429,3.22674024 12.4198857,3.22674024 14.85792,4.8 C15.1528076,4.97914797 15.2859459,5.31138826 15.1869159,5.62099414 C15.0878859,5.93060002 14.7795373,6.14613521 14.42496,6.1536 L14.42496,6.0576 Z" id="Shape" fill-rule="nonzero"></path>
                        <path d="M16.04064,3.12 C15.8922774,3.11787154 15.7469377,3.08153661 15.61824,3.0144 C11.8272,0.96 9.74688,0.96 5.95584,3.0144 C5.57383569,3.22382637 5.07740903,3.11207664 4.84704001,2.76479999 C4.616671,2.41752335 4.73959569,1.96622638 5.1216,1.7568 C9.40896,-0.5856 12.16512,-0.5856 16.45248,1.7568 C16.8060011,1.96233504 16.9256697,2.38075658 16.72704,2.7168 C16.5980715,2.95642057 16.3339365,3.11157679 16.04064,3.12 Z" id="Shape" fill-rule="nonzero"></path>
                        <path d="M21.51072,12.6528 C21.468977,12.3328297 21.2534467,12.0532368 20.9368573,11.9083667 C20.620268,11.7634967 20.2448485,11.7726733 19.93728,11.9328 C18.88128,12.3072 18.48,11.856 18.20544,11.0304 C17.6780757,8.82610304 15.3876508,7.35190229 12.92544,7.632 C12.21792,7.632 11.52096,7.632 10.81344,7.632 C10.10592,7.632 9.3984,7.632 8.70144,7.632 C6.23922916,7.35190229 3.94880427,8.82610304 3.42144,11.0304 C3.14688,11.856 2.77728,12.3072 1.6896,11.9328 C1.38203148,11.7726733 1.00661199,11.7634967 0.690022662,11.9083667 C0.373433331,12.0532368 0.15790301,12.3328297 0.11616,12.6528 C-0.0528,13.392 0.11616,14.064 1.02432,14.3424 C1.20384,14.3904 1.38336,14.4672 1.5312,14.5152 C1.24990758,15.1882425 1.04813334,15.8865681 0.92928,16.5984 C0.8448,18.3264 0.92928,20.064 0.92928,21.8016 C0.86862113,22.1150206 0.966674703,22.4365963 1.19617252,22.6768984 C1.42567033,22.9172005 1.76213595,23.0506003 2.112,23.04 C2.9568,23.04 4.02336,23.2704 4.15008,22.08 C4.24512,21.2256 4.77312,21.12 5.52288,21.12 L16.01952,21.12 C16.76928,21.12 17.28672,21.216 17.38176,22.08 C17.50848,23.2512 18.5856,23.04 19.41984,23.04 C19.7864411,23.0874312 20.1559514,22.9731246 20.4146417,22.732262 C20.6733319,22.4913994 20.7902015,22.1528449 20.72928,21.8208 C20.72928,20.0832 20.72928,18.3456 20.72928,16.6176 C20.5918323,15.8969849 20.3687664,15.192058 20.064,14.5152 C20.20128,14.5152 20.3808,14.3904 20.56032,14.3424 C20.9488522,14.2547563 21.276571,14.0184026 21.4588299,13.6943866 C21.6410889,13.3703707 21.6600151,12.9904667 21.51072,12.6528 Z M5.79744,17.9136 L5.66016,17.9136 C4.87067822,18.0727024 4.05057188,17.8080317 3.54816,17.232 C3.24362061,16.7454306 3.38376438,16.1289624 3.87552,15.792 C4.10235082,15.6935645 4.35347849,15.6505518 4.60416,15.6672 C5.54574453,15.6370136 6.46043938,15.9557709 7.13856,16.5504 C7.88832,17.28 6.48384,17.808 5.79744,17.9136 Z M17.952,17.28 C17.4495881,17.8560317 16.6294818,18.1207024 15.84,17.9616 L15.70272,17.9616 C15.02688,17.856 13.59072,17.3568 14.32992,16.6176 C15.0100141,16.0257961 15.9233451,15.7075141 16.86432,15.7344 C17.1151121,15.7159139 17.3667619,15.7590159 17.59296,15.8592 C18.088484,16.1834222 18.2421935,16.7916845 17.952,17.28 Z" id="Shape" fill-rule="nonzero"></path>
                    </g>
                </g>
            </g>
        </g>
    </g>
</svg>
