
<svg width="24px" height="29px" viewBox="0 0 24 29" version="1.1" xmlns="http://www.w3.org/2000/svg" xmlns:xlink="http://www.w3.org/1999/xlink">
    <!-- Generator: Sketch 49.1 (51147) - http://www.bohemiancoding.com/sketch -->
    <desc>Created with Sketch.</desc>
    <defs>
        <polygon id="path-1" points="0 4.58261618e-05 0 18.8875275 16.3780604 18.8875275 16.3780604 4.58261618e-05"></polygon>
    </defs>
    <g id="Symbols" stroke="none" stroke-width="1" fill="none" fill-rule="evenodd">
        <g id="ic_local_hotel">
            <g>
                <g id="ic_local_hotel_black_24px-copy-3">
                    <g>
                        <g id="Group-2-Copy" fill="#4E4E4E">
                            <path d="M1.96225017e-05,11.991161 L1.96225017e-05,11.8950903 C-0.000552240841,9.67002402 -0.00226783087,4.45933161 2.13936039,2.29373765 C4.40851413,-0.00109429456 7.66127282,-0.00052244509 11.7815482,4.9404384e-05 L12.200724,4.9404384e-05 C16.3198557,-0.00109429456 19.5737581,-0.00109429456 21.84234,2.29373765 C23.9593781,4.43531393 23.9828245,9.55393857 23.9822526,11.8196062 L23.9999804,11.8373335 L23.9999804,12.1049591 C24.0005522,14.3300254 24.0022678,19.5407178 21.8606396,21.7057399 C19.6292289,23.9628298 16.4456656,24 12.4237507,24 L12.2173081,24 L11.7998478,24 C7.68014431,23.9977126 4.42681376,24.0011437 2.15651629,21.7057399 C0.0148880694,19.5407178 0.00230707587,14.323735 0.00287893921,12.0986687 L0.00287893921,11.9202517" id="Fill-1-Copy"></path>
                        </g>
                        <path d="M9.54545455,12.8 C10.5263636,12.8 11.3181818,11.996 11.3181818,11 C11.3181818,10.004 10.5263636,9.2 9.54545455,9.2 C8.56454545,9.2 7.77272727,10.004 7.77272727,11 C7.77272727,11.996 8.56454545,12.8 9.54545455,12.8 Z M16.6363636,9.2 L11.9090909,9.2 L11.9090909,13.4 L7.18181818,13.4 L7.18181818,8 L6,8 L6,17 L7.18181818,17 L7.18181818,15.2 L17.8181818,15.2 L17.8181818,17 L19,17 L19,11.6 C19,10.274 17.9422727,9.2 16.6363636,9.2 Z" id="Shape" fill="#FFFFFF" fill-rule="nonzero"></path>
                    </g>
                </g>
                <g id="click" transform="translate(7.000000, 10.000000)">
                    <mask id="mask-2" fill="white">
                        <use xlink:href="#path-1"></use>
                    </mask>
                    <g id="Clip-2"></g>
                    <path d="M14.3632966,6.31805293 C14.0884457,6.31805293 13.8260678,6.37487737 13.5872995,6.47798623 C13.3661269,5.58025172 12.5743159,4.91393933 11.6334973,4.91393933 C11.3586465,4.91393933 11.0962686,4.97076377 10.8575002,5.07387263 C10.6365504,4.17613812 9.84429392,3.50982573 8.90392085,3.50982573 C8.65223407,3.50982573 8.41123842,3.55748494 8.18917495,3.64455465 L8.18917495,2.0727173 C8.18917495,0.929812823 7.28532987,0 6.17434435,0 C5.06335883,0 4.15951375,0.929812823 4.15951375,2.0727173 L4.15951375,9.8393352 L3.4394223,9.09855529 C2.65384773,8.29041093 1.37559073,8.29041093 0.590016168,9.09855529 C0.209367761,9.49013985 0,10.0104959 0,10.5640759 C0,11.117656 0.209590492,11.6382412 0.590016168,12.0295966 L5.32751858,16.9032089 C6.5503154,18.1829045 8.18382939,18.8874817 9.92759556,18.8874817 C13.3004211,18.8874817 16.1023854,16.2084843 16.3587495,12.7655648 C16.371668,12.7133229 16.3781272,12.6590189 16.3781272,12.6028819 L16.3781272,8.39077022 C16.3781272,7.24786575 15.4742821,6.31805293 14.3632966,6.31805293 Z" id="Path" fill="#000000" mask="url(#mask-2)"></path>
                    <path d="M15.0780425,12.4851086 C15.0735878,12.5112296 15.0706923,12.5375796 15.0689105,12.5648462 C14.9109937,15.3604712 12.6524947,17.5502743 9.92759556,17.5502743 C8.53463176,17.5502743 7.22964696,16.9868417 6.25296863,15.9640017 C6.25163224,15.9626269 6.25029585,15.961023 6.24873673,15.9596482 L1.509007,11.0837446 C1.37403161,10.9448914 1.29963924,10.7602119 1.29963924,10.5638468 C1.29963924,10.3674817 1.37403161,10.1828023 1.509007,10.043949 C1.64843702,9.90051312 1.83129971,9.82902431 2.01438514,9.82902431 C2.19747056,9.82902431 2.38055598,9.90074225 2.51976327,10.043949 L4.34972659,11.9262586 C4.5354848,12.1175828 4.81501303,12.1746364 5.05779054,12.0712984 C5.30101351,11.9677313 5.45915299,11.7239361 5.45915299,11.4535617 L5.45915299,2.0727173 C5.45915299,1.66715577 5.77988658,1.33743653 6.17389889,1.33743653 C6.56813393,1.33743653 6.88864479,1.6673849 6.88864479,2.0727173 L6.88864479,5.58277216 L6.88864479,8.39077022 C6.88864479,8.76012909 7.17975507,9.05937392 7.53857577,9.05937392 C7.89739648,9.05937392 8.18850676,8.75989996 8.18850676,8.39077022 L8.18850676,5.58277216 C8.18850676,5.17721063 8.50946308,4.84749139 8.90325265,4.84749139 C9.29748769,4.84749139 9.61799855,5.17743976 9.61799855,5.58277216 L9.61799855,6.98688576 L9.61799855,8.39099935 C9.61799855,8.76035822 9.90910883,9.05960306 10.2679295,9.05960306 C10.626973,9.05960306 10.9178605,8.76012909 10.9178605,8.39099935 L10.9178605,6.98688576 C10.9178605,6.58132423 11.2388168,6.25160499 11.6326064,6.25160499 C12.0270642,6.25160499 12.3473523,6.58155336 12.3473523,6.98688576 L12.3473523,8.39099935 L12.3473523,9.09305615 C12.3473523,9.46241502 12.6384626,9.76165985 12.9972833,9.76165985 C13.3565495,9.76165985 13.6472143,9.46218589 13.6472143,9.09305615 L13.6472143,8.39099935 C13.6472143,7.98566695 13.9681706,7.65571859 14.3619602,7.65571859 C14.7561952,7.65571859 15.0767061,7.98566695 15.0767061,8.39099935 L15.0767061,12.4851086 L15.0780425,12.4851086 Z" id="Fill-1" fill="#FFFFFF"></path>
                </g>
            </g>
        </g>
    </g>
</svg>
