
<svg width="24px" height="24px" viewBox="0 0 24 24" version="1.1" xmlns="http://www.w3.org/2000/svg" xmlns:xlink="http://www.w3.org/1999/xlink">
    <!-- Generator: Sketch 49.1 (51147) - http://www.bohemiancoding.com/sketch -->
    <desc>Created with Sketch.</desc>
    <defs></defs>
    <g id="Page-1" stroke="none" stroke-width="1" fill="none" fill-rule="evenodd">
        <g id="POPOVER" transform="translate(-317.000000, -469.000000)" fill="#4A4A4A">
            <g id="popover" transform="translate(215.000000, 469.000000)">
                <g id="icon/standard/user-profile" transform="translate(102.000000, 0.000000)">
                    <g id="user-profile">
                        <g>
                            <path d="M12,0 C5.372,0 0,5.372 0,12 C0,18.628 5.372,24 12,24 C18.628,24 24,18.628 24,12 C24,5.372 18.628,0 12,0 L12,0 Z M15.3346667,9.40266667 C15.3346667,11.2413333 13.844,12.736 12.0013333,12.736 C10.1586667,12.736 8.668,11.2413333 8.668,9.40266667 C8.668,7.56 10.1586667,6.06933333 12.0013333,6.06933333 C13.844,6.06933333 15.3346667,7.56 15.3346667,9.40266667 L15.3346667,9.40266667 Z M12.0013333,13.8973333 C15.06,13.8973333 17.612,15.9693333 18.396,18.7786667 C16.724,20.3586667 14.4773333,21.3333333 12,21.3333333 C9.52533333,21.3333333 7.27866667,20.3586667 5.60666667,18.7813333 C6.39066667,15.9693333 8.94133333,13.8973333 12.0013333,13.8973333 L12.0013333,13.8973333 Z" id="Shape"></path>
                        </g>
                    </g>
                </g>
            </g>
        </g>
    </g>
</svg>
