
<svg width="21px" height="21px" viewBox="0 0 21 21" version="1.1" xmlns="http://www.w3.org/2000/svg" xmlns:xlink="http://www.w3.org/1999/xlink">
    <!-- Generator: Sketch 49.1 (51147) - http://www.bohemiancoding.com/sketch -->
    <desc>Created with Sketch.</desc>
    <defs></defs>
    <g id="Page-1" stroke="none" stroke-width="1" fill="none" fill-rule="evenodd">
        <g id="Info-navigation-ok" transform="translate(-457.000000, -507.000000)">
            <g id="xlsx" transform="translate(457.000000, 507.272078)">
                <path d="M18.8999763,8.01123596 L2.09999737,8.01123596 C0.940200848,8.01123596 0,9.01733764 0,10.258427 L0,14.752809 C0,15.9938983 0.940200848,17 2.09999737,17 L18.8999763,17 C20.0597729,17 20.9999737,15.9938983 20.9999737,14.752809 L20.9999737,10.258427 C21.0027676,9.66049046 20.7827525,9.08601786 20.3886234,8.66215454 C19.9944943,8.23829122 19.4587543,7.99999253 18.8999763,8 L18.8999763,8.01123596 Z" id="Path" fill="#999999"></path>
                <path d="M17.3846154,8.16470588 L17.3846154,2.55686275 C17.3866632,2.19148308 17.2457412,1.84035157 16.993066,1.58124988 C16.7403909,1.32214819 16.3968205,1.17646462 16.0384615,1.17647059 L6.96923077,1.17647059 L6.96923077,2.96470588 C6.96501177,4.15412189 6.02038878,5.1172669 4.85384615,5.12156863 L3.15384615,5.12156863 L3.15384615,17.4509804 C3.15384615,18.2090183 3.75653976,18.8235294 4.5,18.8235294 L16.0384615,18.8235294 C16.7819218,18.8235294 17.3846154,18.2090183 17.3846154,17.4509804 L17.3846154,16.0666667 L18.5384615,16.0666667 L18.5384615,17.4509804 C18.5342381,18.8569775 17.4174202,19.9956937 16.0384615,20 L4.5,20 C3.12104134,19.9956937 2.00422349,18.8569775 2,17.4509804 L2,4.64313725 C2.00096602,4.48735065 2.0617112,4.33814056 2.16923077,4.22745098 L6.14615385,0.17254902 C6.25424412,0.0622019707 6.40088819,0.000137295718 6.55384615,0 L16.0384615,0 C17.4174202,0.00430629999 18.5342381,1.14302254 18.5384615,2.54901961 L18.5384615,8.15686275 L17.3846154,8.16470588 Z" id="Shape-Copy-2" fill="#999999" fill-rule="nonzero"></path>
                <path d="M2.928,12.272 L1.256,9.528 L2.56,9.528 L3.648,11.336 L4.64,9.528 L5.968,9.528 L4.176,12.208 L5.92,15 L4.536,15 L3.448,13.144 L2.464,15 L1.112,15 L2.928,12.272 Z M6.672,9.528 L7.92,9.528 L7.92,14.096 L10.344,14.096 L10.344,15 L6.672,15 L6.672,9.528 Z M10.88,14.832 L11.072,13.88 C11.3066678,13.9600004 11.5653319,14.0253331 11.848,14.076 C12.1306681,14.1266669 12.375999,14.152 12.584,14.152 C12.9573352,14.152 13.2306658,14.0986672 13.404,13.992 C13.5773342,13.8853328 13.664,13.7066679 13.664,13.456 C13.664,13.2693324 13.5826675,13.1306671 13.42,13.04 C13.2573325,12.9493329 13.0000018,12.8586671 12.648,12.768 C12.2853315,12.6719995 11.9840012,12.5706672 11.744,12.464 C11.5039988,12.3573328 11.2986675,12.1893345 11.128,11.96 C10.9573325,11.7306655 10.872,11.4186686 10.872,11.024 C10.872,10.490664 11.0586648,10.090668 11.432,9.824 C11.8053352,9.557332 12.2986636,9.424 12.912,9.424 C13.178668,9.424 13.4479986,9.4439998 13.72,9.484 C13.9920014,9.5240002 14.231999,9.57866632 14.44,9.648 L14.248,10.576 C13.7679976,10.4479994 13.3306686,10.384 12.936,10.384 C12.6159984,10.384 12.3880007,10.4346662 12.252,10.536 C12.1159993,10.6373338 12.048,10.7813324 12.048,10.968 C12.048,11.1066674 12.0919996,11.2199996 12.18,11.308 C12.2680004,11.3960004 12.378666,11.4666664 12.512,11.52 C12.645334,11.5733336 12.8373321,11.6346663 13.088,11.704 C13.4506685,11.8000005 13.7493322,11.9026661 13.984,12.012 C14.2186678,12.1213339 14.4199992,12.2906655 14.588,12.52 C14.7560008,12.7493345 14.84,13.0559981 14.84,13.44 C14.84,13.9200024 14.6880015,14.3039986 14.384,14.592 C14.191999,14.7733342 13.9613347,14.9053329 13.692,14.988 C13.4226653,15.0706671 13.0906686,15.112 12.696,15.112 C12.0239966,15.112 11.4186694,15.0186676 10.88,14.832 Z M17.136,12.272 L15.464,9.528 L16.768,9.528 L17.856,11.336 L18.848,9.528 L20.176,9.528 L18.384,12.208 L20.128,15 L18.744,15 L17.656,13.144 L16.672,15 L15.32,15 L17.136,12.272 Z" id="XLSX" fill="#FFFFFF"></path>
            </g>
        </g>
    </g>
</svg>
