
<svg width="20px" height="20px" viewBox="0 0 20 20" version="1.1" xmlns="http://www.w3.org/2000/svg" xmlns:xlink="http://www.w3.org/1999/xlink">
    <!-- Generator: Sketch 49.1 (51147) - http://www.bohemiancoding.com/sketch -->
    <desc>Created with Sketch.</desc>
    <defs></defs>
    <g id="Page-1" stroke="none" stroke-width="1" fill-rule="evenodd">
        <g id="Apple-TV" transform="translate(-125.000000, -99.000000)">
            <g id="Group-5" transform="translate(64.000000, 84.000000)">
                <g id="XML" transform="translate(61.000000, 15.000000)">
                    <g id="Shape">
                        <path d="M15.3846154,10.2 L15.3846154,2.50769231 C15.3866632,2.14933918 15.2457412,1.8049602 14.993066,1.55084123 C14.7403909,1.29672227 14.3968205,1.1538403 14.0384615,1.15384615 L4.96923077,1.15384615 L4.96923077,2.90769231 C4.96501177,4.07423493 4.02038878,5.01885792 2.85384615,5.02307692 L1.15384615,5.02307692 L1.15384615,17.1153846 C1.15384615,17.8588449 1.75653976,18.4615385 2.5,18.4615385 L14.0384615,18.4615385 C14.7819218,18.4615385 15.3846154,17.8588449 15.3846154,17.1153846 L15.3846154,16.7384615 L16.5384615,16.7384615 L16.5384615,17.1153846 C16.5342381,18.4943433 15.4174202,19.6111611 14.0384615,19.6153846 L2.5,19.6153846 C1.12104134,19.6111611 0.00422348653,18.4943433 0,17.1153846 L0,4.55384615 C0.000966021607,4.40105544 0.061711201,4.25471478 0.169230769,4.14615385 L4.14615385,0.169230769 C4.25424412,0.0610057789 4.40088819,0.000134655415 4.55384615,0 L14.0384615,0 C15.4174202,0.00422348653 16.5342381,1.12104134 16.5384615,2.5 L16.5384615,10.1923077 L15.3846154,10.2 Z M17.8461538,10.4076923 L5.53846154,10.4076923 C4.68879269,10.4076923 4,11.096485 4,11.9461538 L4,15.0230769 C4,15.8727458 4.68879269,16.5615385 5.53846154,16.5615385 L17.8461538,16.5615385 C18.6958227,16.5615385 19.3846154,15.8727458 19.3846154,15.0230769 L19.3846154,11.9461538 C19.3866622,11.5367973 19.2254788,11.1435045 18.9367391,10.8533212 C18.6479995,10.5631378 18.2555155,10.3999949 17.8461538,10.4 L17.8461538,10.4076923 Z" fill-rule="nonzero"></path>
                        <polygon fill="#FFFFFF" fill-rule="nonzero" points="9.53846154 15.9076923 8.86153846 15.9076923 7.8 13.9923077 6.79230769 15.9076923 6.11538462 15.9076923 7.53076923 13.5384615 6.17692308 11.1615385 6.83076923 11.1615385 7.88461538 13.0769231 8.90769231 11.1615385 9.55384615 11.1615385 8.16153846 13.5153846"></polygon>
                        <polygon fill="#FFFFFF" fill-rule="nonzero" points="14.3230769 15.9076923 13.7384615 15.9076923 13.7384615 12.3769231 12.3615385 14.9 11.8461538 14.9 10.4769231 12.3461538 10.4769231 15.9076923 9.93076923 15.9076923 9.93076923 11.1615385 10.4692308 11.1615385 12.1230769 14.2846154 13.7923077 11.1615385 14.3230769 11.1615385"></polygon>
                        <polygon fill="#FFFFFF" fill-rule="nonzero" points="17.8076923 15.9076923 15.1230769 15.9076923 15.1230769 11.1615385 15.7461538 11.1615385 15.7461538 15.4230769 17.8076923 15.4230769"></polygon>
                    </g>
                </g>
            </g>
        </g>
    </g>
</svg>
