
<svg width="327px" height="281px" viewBox="0 0 327 281" version="1.1" xmlns="http://www.w3.org/2000/svg" xmlns:xlink="http://www.w3.org/1999/xlink">
    <!-- Generator: Sketch 49.1 (51147) - http://www.bohemiancoding.com/sketch -->
    <desc>Created with Sketch.</desc>
    <defs></defs>
    <g id="LAYOUT,-GRID-&amp;-BREAKPOINTS" stroke="none" stroke-width="1" fill="none" fill-rule="evenodd">
        <g id="Layout,-grid-&amp;-breakpoints-OK" transform="translate(-1033.000000, -541.000000)">
            <g id="DESKTOP" transform="translate(1033.000000, 541.000000)">
                <path d="M117.04,231 L209.886413,231 C210.811188,231 211.61537,231.634015 211.831187,232.533254 L222.871187,278.533254 C223.128964,279.607323 222.467228,280.686998 221.393159,280.944775 C221.240288,280.981464 221.083625,281 220.926413,281 L106,281 C104.895431,281 104,280.104569 104,279 C104,278.842788 104.018536,278.686125 104.055225,278.533254 L115.095225,232.533254 C115.311043,231.634015 116.115225,231 117.04,231 Z" id="Rectangle-Copy-20" fill="#D8D8D8" fill-rule="evenodd"></path>
                <rect id="Rectangle-Copy-3" fill="#D8D8D8" fill-rule="evenodd" x="0" y="0" width="327" height="219" rx="2"></rect>
                <rect id="Rectangle-2-Copy-3" fill="#FFFFFF" fill-rule="evenodd" x="12" y="12" width="304" height="182"></rect>
                <rect id="Rectangle-149-Copy-26" fill-opacity="0.6" fill="#0F6ADD" fill-rule="evenodd" x="16" y="16" width="296" height="37" rx="2"></rect>
                <rect id="Rectangle-149-Copy-27" fill-opacity="0.6" fill="#00AAEE" fill-rule="evenodd" x="16" y="55" width="150" height="117" rx="2"></rect>
                <rect id="Rectangle-149-Copy-28" fill-opacity="0.6" fill="#9BBBEB" fill-rule="evenodd" x="167" y="55" width="145" height="68" rx="2"></rect>
                <rect id="Rectangle-149-Copy-29" fill="#C2FEE9" fill-rule="evenodd" x="167" y="123" width="145" height="48" rx="2"></rect>
                <path d="M18.779661,178.5 L109.435163,178.5" id="Line-2-Copy-6" stroke="#979797" stroke-width="1" stroke-linecap="square"></path>
                <path d="M117.779661,178.5 L208.435163,178.5" id="Line-2-Copy-9" stroke="#979797" stroke-width="1" stroke-linecap="square"></path>
                <path d="M218.779661,178.5 L309.435163,178.5" id="Line-2-Copy-12" stroke="#979797" stroke-width="1" stroke-linecap="square"></path>
                <path d="M18.779661,183.5 L109.435163,183.5" id="Line-2-Copy-7" stroke="#979797" stroke-width="1" stroke-linecap="square"></path>
                <path d="M117.779661,183.5 L208.435163,183.5" id="Line-2-Copy-10" stroke="#979797" stroke-width="1" stroke-linecap="square"></path>
                <path d="M218.779661,183.5 L309.435163,183.5" id="Line-2-Copy-13" stroke="#979797" stroke-width="1" stroke-linecap="square"></path>
                <path d="M18.779661,188.5 L109.435163,188.5" id="Line-2-Copy-8" stroke="#979797" stroke-width="1" stroke-linecap="square"></path>
                <path d="M117.779661,188.5 L208.435163,188.5" id="Line-2-Copy-11" stroke="#979797" stroke-width="1" stroke-linecap="square"></path>
                <path d="M218.779661,188.5 L309.435163,188.5" id="Line-2-Copy-14" stroke="#979797" stroke-width="1" stroke-linecap="square"></path>
                <text id="50%-copy-2" font-family="Telefonica-Light, Telefonica" font-size="18" font-weight="300" fill="#4A4A4A">
                    <tspan x="73.896" y="120">50%</tspan>
                </text>
                <text id="100%-copy-5" font-family="Telefonica-Light, Telefonica" font-size="18" font-weight="300" fill="#4A4A4A">
                    <tspan x="153.108" y="39">100%</tspan>
                </text>
            </g>
        </g>
    </g>
</svg>
