
<svg width="1294px" height="347px" viewBox="0 0 1294 347" version="1.1" xmlns="http://www.w3.org/2000/svg" xmlns:xlink="http://www.w3.org/1999/xlink">
    <!-- Generator: Sketch 49.1 (51147) - http://www.bohemiancoding.com/sketch -->
    <desc>Created with Sketch.</desc>
    <defs></defs>
    <g id="LAYOUT,-GRID-&amp;-BREAKPOINTS" stroke="none" stroke-width="1" fill="none" fill-rule="evenodd">
        <g id="Layout,-grid-&amp;-breakpoints-SPECS" transform="translate(-108.000000, -3081.000000)">
            <g id="grid-copy" transform="translate(108.000000, 3076.000000)">
                <g>
                    <g transform="translate(6.000000, 0.000000)" fill-rule="evenodd" stroke-width="1">
                        <g>
                            <text id="1280px" font-family="Telefonica-Bold, Telefonica" font-size="18" font-weight="bold" fill="#4A4A4A">
                                <tspan x="623" y="18">1280px</tspan>
                            </text>
                            <path d="M1,31 L1281,31" id="Line" stroke="#979797"></path>
                            <path d="M1.5,20.5 L1.5,41.5237961" id="Line" stroke="#979797" stroke-linecap="square"></path>
                            <path d="M1280.5,20.5 L1280.5,41.5237961" id="Line" stroke="#979797" stroke-linecap="square"></path>
                            <text id="295px" font-family="Telefonica-Regular, Telefonica" font-size="14" font-weight="normal" fill="#4A4A4A">
                                <tspan x="150" y="69">295px</tspan>
                            </text>
                            <path d="M21,81 L316,81" id="Line" stroke="#979797"></path>
                            <path d="M21.5,70.5 L21.5,91.5237961" id="Line" stroke="#979797" stroke-linecap="square"></path>
                            <path d="M316,70 L316,91" id="Line" stroke="#979797" stroke-linecap="square"></path>
                            <text id="925px" font-family="Telefonica-Regular, Telefonica" font-size="14" font-weight="normal" fill="#4A4A4A">
                                <tspan x="778" y="69">925px</tspan>
                            </text>
                            <path d="M335,81 L1260,81" id="Line" stroke="#979797"></path>
                            <path d="M335.5,70.5 L335.5,91.5237961" id="Line" stroke="#979797" stroke-linecap="square"></path>
                            <path d="M1260.5,70.5 L1260.5,91.5237961" id="Line" stroke="#979797" stroke-linecap="square"></path>
                            <rect id="Rectangle-5" fill="#D8D8D8" opacity="0.234783116" x="21" y="150.946687" width="85" height="200.529899"></rect>
                            <rect id="Rectangle-5-Copy" fill="#D8D8D8" opacity="0.234783116" x="126" y="150.946687" width="85" height="200.529899"></rect>
                            <rect id="Rectangle-5-Copy-2" fill="#D8D8D8" opacity="0.234783116" x="231" y="150.946687" width="85" height="200.529899"></rect>
                            <rect id="Rectangle-5-Copy-3" fill="#D8D8D8" opacity="0.234783116" x="336" y="150.946687" width="85" height="200.529899"></rect>
                            <rect id="Rectangle-5-Copy-4" fill="#D8D8D8" opacity="0.234783116" x="441" y="150.946687" width="85" height="200.529899"></rect>
                            <rect id="Rectangle-5-Copy-5" fill="#D8D8D8" opacity="0.234783116" x="546" y="150.946687" width="85" height="200.529899"></rect>
                            <rect id="Rectangle-5-Copy-6" fill="#D8D8D8" opacity="0.234783116" x="651" y="150.946687" width="85" height="200.529899"></rect>
                            <rect id="Rectangle-5-Copy-7" fill="#D8D8D8" opacity="0.234783116" x="756" y="150.946687" width="85" height="200.529899"></rect>
                            <rect id="Rectangle-5-Copy-8" fill="#D8D8D8" opacity="0.234783116" x="861" y="150.946687" width="85" height="200.529899"></rect>
                            <rect id="Rectangle-5-Copy-9" fill="#D8D8D8" opacity="0.234783116" x="966" y="150.946687" width="85" height="200.529899"></rect>
                            <rect id="Rectangle-5-Copy-10" fill="#D8D8D8" opacity="0.234783116" x="1071" y="150.946687" width="85" height="200.529899"></rect>
                            <rect id="Rectangle-5-Copy-11" fill="#D8D8D8" opacity="0.234783116" x="1176" y="150.946687" width="85" height="200.529899"></rect>
                        </g>
                    </g>
                    <rect id="ruler-start-copy-2" fill="#FBA6D9" fill-rule="evenodd" x="112" y="249" width="1" height="5"></rect>
                    <rect id="ruler-start-copy-3" fill="#FBA6D9" fill-rule="evenodd" x="1267" y="249" width="1" height="5"></rect>
                    <rect id="ruler-end-copy-2" fill="#FBA6D9" fill-rule="evenodd" x="131" y="249" width="1" height="5"></rect>
                    <rect id="ruler-end-copy-3" fill="#FBA6D9" fill-rule="evenodd" x="1286" y="249" width="1" height="5"></rect>
                    <rect id="ruler-line-copy-2" fill="#FBA6D9" fill-rule="evenodd" x="112" y="251" width="20" height="1"></rect>
                    <rect id="ruler-line-copy-3" fill="#FBA6D9" fill-rule="evenodd" x="1267" y="251" width="20" height="1"></rect>
                    <polygon id="label-arrow-copy-2" fill="#FBA6D9" fill-rule="evenodd" points="118 245 122 241 126 245 122 249"></polygon>
                    <polygon id="label-arrow-copy-3" fill="#FBA6D9" fill-rule="evenodd" points="1273 245 1277 241 1281 245 1277 249"></polygon>
                    <rect id="label-box-copy-2" fill="#FBA6D9" fill-rule="evenodd" x="104" y="223" width="35" height="22" rx="2"></rect>
                    <rect id="label-box-copy-3" fill="#FBA6D9" fill-rule="evenodd" x="1259" y="223" width="35" height="22" rx="2"></rect>
                    <text id="label-text-copy-2" font-family="HelveticaNeue-Medium, Helvetica Neue" font-size="9" font-weight="400" fill="#FFFFFF">
                        <tspan x="111.33" y="238">20px</tspan>
                    </text>
                    <text id="label-text-copy-3" font-family="HelveticaNeue-Medium, Helvetica Neue" font-size="9" font-weight="400" fill="#FFFFFF">
                        <tspan x="1266.33" y="238">20px</tspan>
                    </text>
                    <rect id="ruler-start-copy-4" fill="#CCCCCC" fill-rule="evenodd" x="27" y="145" width="1" height="5"></rect>
                    <rect id="ruler-end-copy-4" fill="#CCCCCC" fill-rule="evenodd" x="111" y="145" width="1" height="5"></rect>
                    <rect id="ruler-line-copy-4" fill="#CCCCCC" fill-rule="evenodd" x="27" y="147" width="85" height="1"></rect>
                    <polygon id="label-arrow-copy-4" fill="#CCCCCC" fill-rule="evenodd" points="66 148 70 144 74 148 70 152"></polygon>
                    <rect id="label-box-copy-4" fill="#CCCCCC" fill-rule="evenodd" x="52" y="137" width="35" height="22" rx="2"></rect>
                    <text id="label-text-copy-4" font-family="HelveticaNeue-Medium, Helvetica Neue" font-size="12" font-weight="400" fill="#FFFFFF">
                        <tspan x="56.44" y="152">85px</tspan>
                    </text>
                    <rect id="ruler-end-copy-5" fill="#FBA6D9" fill-rule="evenodd" x="25" y="69" width="5" height="1"></rect>
                    <rect id="ruler-start-copy-5" fill="#FBA6D9" fill-rule="evenodd" x="9" y="78" width="1" height="5"></rect>
                    <rect id="ruler-start-copy-7" fill="#FBA6D9" fill-rule="evenodd" x="323" y="78" width="1" height="5"></rect>
                    <rect id="ruler-end-copy-6" fill="#FBA6D9" fill-rule="evenodd" x="25" y="78" width="1" height="5"></rect>
                    <rect id="ruler-end-copy-8" fill="#FBA6D9" fill-rule="evenodd" x="339" y="78" width="1" height="5"></rect>
                    <rect id="ruler-line-copy-5" fill="#FBA6D9" fill-rule="evenodd" x="9" y="80" width="17" height="1"></rect>
                    <rect id="ruler-line-copy-7" fill="#FBA6D9" fill-rule="evenodd" x="323" y="80" width="17" height="1"></rect>
                    <polygon id="label-arrow-copy-5" fill="#FBA6D9" fill-rule="evenodd" points="14 74 18 70 22 74 18 78"></polygon>
                    <polygon id="label-arrow-copy-7" fill="#FBA6D9" fill-rule="evenodd" points="328 74 332 70 336 74 332 78"></polygon>
                    <rect id="label-box-copy-5" fill="#FBA6D9" fill-rule="evenodd" x="0" y="52" width="35" height="22" rx="2"></rect>
                    <rect id="label-box-copy-7" fill="#FBA6D9" fill-rule="evenodd" x="314" y="52" width="35" height="22" rx="2"></rect>
                    <text id="20px-copy" font-family="HelveticaNeue-Medium, Helvetica Neue" font-size="9" font-weight="400" fill="#FFFFFF">
                        <tspan x="7.33" y="67">20px</tspan>
                    </text>
                    <text id="20px-copy-2" font-family="HelveticaNeue-Medium, Helvetica Neue" font-size="9" font-weight="400" fill="#FFFFFF">
                        <tspan x="321.33" y="67">20px</tspan>
                    </text>
                </g>
            </g>
        </g>
    </g>
</svg>
