<?xml version="1.0" encoding="UTF-8"?>
<svg width="100px" height="26px" viewBox="0 0 100 26" version="1.1" xmlns="http://www.w3.org/2000/svg" xmlns:xlink="http://www.w3.org/1999/xlink">
    <!-- Generator: Sketch 49.1 (51147) - http://www.bohemiancoding.com/sketch -->
    <title>LOGO</title>
    <desc>Created with Sketch.</desc>
    <defs></defs>
    <g id="ASSETS-welcome-+-home" stroke="none" stroke-width="1" fill="none" fill-rule="evenodd">
        <g id="Desktop-HD-1440-X-1024" transform="translate(-71.000000, -61.000000)" fill="#1D1D1B">
            <g id="LOGO" transform="translate(71.000000, 61.000000)">
                <path d="M93.6051437,11.4557766 C93.6051437,11.9697444 93.2943531,12.3256732 92.753476,12.3256732 L85.8805421,12.3256732 C85.3393977,12.3256732 85.0288744,11.9697444 85.0288744,11.4557766 L85.0288744,7.20018897 C85.0288744,6.6862212 85.3393977,6.33056532 85.8805421,6.33056532 L92.753476,6.33056532 C93.2943531,6.33056532 93.6051437,6.6862212 93.6051437,7.20018897 L93.6051437,11.4557766 Z M84.8279161,0.0232008818 C84.1507508,0.0232008818 83.5374539,0.303522125 83.0938491,0.756894651 C82.5489635,1.31344286 79.9239458,3.99928613 79.3523371,4.58285654 C78.9084651,5.03622907 78.6340181,5.66237993 78.6340181,6.35431211 L78.6340181,25.2936014 C78.6340181,25.6828303 78.942938,25.9983623 79.3240105,25.9983623 L84.338882,25.9983623 C84.7199545,25.9983623 85.0288744,25.6828303 85.0288744,25.2936014 L85.0288744,17.8431158 C85.0288744,17.3291481 85.3393977,16.9732193 85.8805421,16.9732193 L92.753476,16.9732193 C93.2943531,16.9732193 93.6051437,17.3291481 93.6051437,17.8431158 L93.6051437,25.2936014 C93.6051437,25.6828303 93.9137964,25.9983623 94.2948689,25.9983623 L99.3102748,25.9983623 C99.6910801,25.9983623 100,25.6828303 100,25.2936014 L100,6.35431211 C100,5.66237993 99.7252857,5.03622907 99.281681,4.58285654 C98.7103395,3.99928613 96.0850545,1.31344286 95.5401689,0.756894651 C95.096297,0.303522125 94.4830001,0.0232008818 93.8058347,0.0232008818 L84.8279161,0.0232008818 Z M51.871825,19.6716183 C51.871825,20.3632775 52.146272,20.9894284 52.590144,21.4428009 C53.1350295,21.9993491 55.764323,24.6808252 56.3359317,25.2643956 C56.7798037,25.7177681 57.3928334,25.9983623 58.0699987,25.9983623 L70.6063756,25.9983623 C70.9871809,25.9983623 71.2963681,25.6828303 71.2963681,25.2936014 L71.2963681,20.3954858 C71.2963681,20.0065298 70.9871809,19.6909978 70.6063756,19.6909978 L59.1055218,19.6909978 C58.6023244,19.6909978 58.2541214,19.3735552 58.2541214,18.8211013 L58.2541214,7.20182668 C58.2541214,6.64964569 58.6023244,6.33220303 59.1055218,6.33220303 L70.6063756,6.33220303 C70.9871809,6.33220303 71.2963681,6.01667104 71.2963681,5.62744213 L71.2963681,0.704487953 C71.2963681,0.315531993 70.9871809,0 70.6063756,0 L58.0699987,0 C57.3928334,0 56.7798037,0.280321243 56.3359317,0.733693769 C55.764323,1.31726419 53.1350295,3.99874022 52.590144,4.55528844 C52.146272,5.00866096 51.871825,5.63481182 51.871825,6.32647105 L51.871825,19.6716183 Z M38.7352455,25.9983623 C39.412678,25.9983623 40.0257077,25.7177681 40.4695797,25.2643956 C41.0144653,24.7078474 43.639483,22.0220041 44.2110917,21.4384337 C44.6549637,20.9850612 44.9294107,20.3589103 44.9294107,19.6669781 L44.9294107,0.727688835 C44.9294107,0.338732875 44.6204908,0.0232008818 44.2396855,0.0232008818 L39.2242796,0.0232008818 C38.8434743,0.0232008818 38.5342872,0.338732875 38.5342872,0.727688835 L38.5342872,18.8211013 C38.5342872,19.335342 38.2237639,19.6909978 37.6828867,19.6909978 L30.8099528,19.6909978 C30.2690757,19.6909978 29.9582851,19.335342 29.9582851,18.8211013 L29.9582851,0.727688835 C29.9582851,0.338732875 29.6493652,0.0232008818 29.2685599,0.0232008818 L24.253154,0.0232008818 C23.8723487,0.0232008818 23.5634288,0.338732875 23.5634288,0.727688835 L23.5634288,19.6669781 C23.5634288,20.3589103 23.8378758,20.9850612 24.2817478,21.4384337 C24.8533566,22.0220041 27.4783743,24.7078474 28.0232599,25.2643956 C28.4671318,25.7177681 29.0801615,25.9983623 29.7575941,25.9983623 L38.7352455,25.9983623 Z M6.19389803,25.9983623 C5.51673272,25.9983623 4.90370303,25.7177681 4.45983106,25.2643956 C3.91494547,24.7078474 1.28992777,22.0220041 0.718319005,21.4384337 C0.274447031,20.9850612 0,20.3589103 0,19.6669781 L0,0.727688835 C0,0.338732875 0.308919929,0.0232008818 0.689992437,0.0232008818 L5.70513112,0.0232008818 C6.08620363,0.0232008818 6.39485632,0.338732875 6.39485632,0.727688835 L6.39485632,18.8211013 C6.39485632,19.335342 6.70564687,19.6909978 7.24652398,19.6909978 L16.3503088,19.6909978 C16.7313813,19.6909978 17.0403012,20.0065298 17.0403012,20.3954858 L17.0403012,25.2952391 C17.0403012,25.6841951 16.7313813,26 16.3503088,26 C14.7474526,26 7.3349777,25.9983623 6.19389803,25.9983623 Z" id="Fill-1"></path>
            </g>
        </g>
    </g>
</svg>