<?xml version="1.0" encoding="UTF-8"?>
<svg width="828px" height="330px" viewBox="0 0 828 330" version="1.1" xmlns="http://www.w3.org/2000/svg" xmlns:xlink="http://www.w3.org/1999/xlink">
    <!-- Generator: Sketch 49.1 (51147) - http://www.bohemiancoding.com/sketch -->
    <title>PATTERN</title>
    <desc>Created with Sketch.</desc>
    <defs>
        <linearGradient x1="50%" y1="0%" x2="50%" y2="100%" id="linearGradient-1">
            <stop stop-color="#00EEAA" offset="0%"></stop>
            <stop stop-color="#00AAEE" offset="100%"></stop>
        </linearGradient>
    </defs>
    <g id="ASSETS-welcome-+-home" stroke="none" stroke-width="1" fill="none" fill-rule="evenodd">
        <g id="Desktop-HD-1440-X-1024" transform="translate(-553.000000, -268.000000)" stroke="url(#linearGradient-1)">
            <g id="PATTERN" transform="translate(554.000000, 269.000000)">
                <g>
                    <g id="100%" transform="translate(0.000000, 21.574424)" stroke-width="2">
                        <polygon id="Stroke-1" points="163.671526 89.6862723 247.647054 101.132731 262.13565 23.1036511 177.626737 10.5929277"></polygon>
                        <polygon id="Stroke-3" points="229.212666 109.428516 142.889252 121.311148 131.597221 42.6951027 217.518104 30.5482731"></polygon>
                        <polygon id="Stroke-5" points="538.291314 145.184086 453.64781 157.342131 442.254834 78.0244686 526.898338 65.8664231"></polygon>
                        <polygon id="Stroke-7" points="667.739173 102.619337 582.633319 115.662193 579.061643 44.027428 664.16625 30.984572"></polygon>
                        <polygon id="Stroke-9" points="627.107798 152.91272 639.722073 230.886966 555.858705 220.007534 541.773886 140.357133"></polygon>
                        <polygon id="Stroke-13" points="417.076008 141.713136 453.647685 157.341882 442.254709 78.0242193 405.681786 62.3954731"></polygon>
                        <polygon id="Stroke-12" points="532.460608 61.692111 558.686137 137.696096 398.759513 190.999081 370.501394 114.242384"></polygon>
                        <polygon id="Stroke-15" points="142.902587 121.362492 229.212292 109.428765 264.545223 123.295367 181.804702 135.740041"></polygon>
                        <polygon id="Stroke-17" points="142.902587 121.362492 229.212292 109.428765 217.518977 30.5472761 131.598093 42.6953519"></polygon>
                        <polygon id="Stroke-19" points="131.597719 42.6947288 217.518603 30.5478992 252.389184 44.4867818 170.498588 57.0710318"></polygon>
                        <polygon id="Stroke-21" points="217.518353 30.5477746 229.212915 109.428017 264.5446 123.295866 252.388935 44.4866572"></polygon>
                        <polygon id="Stroke-23" points="349.260261 113.694673 269.661469 125.127423 258.228614 45.5306091 337.826159 34.0966129"></polygon>
                        <polygon id="Stroke-25" points="362.940057 149.419836 270.997421 136.996348 283.421023 45.0545561 375.363659 57.4780447"></polygon>
                        <polygon id="Stroke-27" points="142.889751 121.311397 58.1764577 133.479412 46.884426 54.8621208 131.597719 42.6953519"></polygon>
                        <polygon id="Stroke-29" points="163.671526 89.6862723 78.6616314 78.4753481 93.1502266 0.447514773 177.626737 10.5929277"></polygon>
                        <polygon id="Stroke-31" points="164.621397 182.981201 84.1228323 209.561659 56.0740785 133.781993 139.99602 107.137978"></polygon>
                        <polygon id="Stroke-33" points="62.0348905 176.214643 20.7898754 197.157238 0.7319071 120.228564 43.8026397 99.4529614"></polygon>
                        <polygon id="Stroke-35" points="824.969592 177.020319 781.543686 195.612558 763.109547 132.602827 808.423482 114.092838"></polygon>
                        <polygon id="Stroke-37" points="139.996269 107.138102 220.473648 80.752053 257.174932 87.308375 176.737432 112.662561"></polygon>
                        <polygon id="Stroke-39" points="220.473897 80.7516792 247.912002 156.429156 285.748595 165.555168 257.175181 87.3080011"></polygon>
                        <polygon id="Stroke-41" points="139.901431 107.085761 164.621522 182.981326 205.53878 190.545833 176.737307 112.662561"></polygon>
                        <polygon id="Stroke-43" points="295.480355 97.7374258 323.026881 173.135752 360.337568 180.836096 332.26389 104.004627"></polygon>
                    </g>
                    <g id="TRANSP-50%" transform="translate(42.371601, 26.559273)" stroke-width="2">
                        <polygon id="Stroke-47" points="281.363508 232.34952 243.599196 228.833956 205.133259 158.197407 243.377368 160.570195"></polygon>
                        <polygon id="Stroke-49" points="281.363508 232.34952 320.810223 236.624028 282.344286 165.986233 243.377368 160.570195"></polygon>
                        <polygon id="Stroke-51" points="360.015668 240.217481 320.810721 236.623405 282.343539 165.986856 322.029528 168.438155"></polygon>
                        <polygon id="Stroke-53" points="543.113078 169.034343 384.516174 242.375172 346.050238 171.737377 505.126937 97.255017"></polygon>
                        <polygon id="Stroke-55" points="83.2620657 196.996227 105.564483 228.365879 135.390351 153.667924 114.271847 121.939364"></polygon>
                        <polygon id="Stroke-57" points="156.001892 220.172283 104.804535 239.021242 0.596567221 117.889423 50.7844826 100.093514"></polygon>
                        <polygon id="Stroke-59" points="229.039192 121.75131 191.95781 113.98367 150.974502 0.0910981061 187.957432 7.83381402"></polygon>
                        <polygon id="Stroke-61" points="349.081926 248.609348 313.565801 226.892856 291.471503 82.0319129 326.986382 103.748405"></polygon>
                        <polygon id="Stroke-63" points="615.433051 243.782146 575.824328 239.117574 549.460468 165.777991 589.070438 170.441316"></polygon>
                        <polygon id="Stroke-65" points="657.736484 239.128914 629.428516 216.806763 645.525986 137.688494 673.833954 160.010645"></polygon>
                        <polygon id="Stroke-67" points="629.428142 216.806638 576.169532 207.236975 592.267002 128.118706 645.525612 137.688369"></polygon>
                        <polygon id="Stroke-69" points="576.169656 207.236726 543.44881 201.23123 559.54628 122.112961 592.267126 128.118457"></polygon>
                    </g>
                    <g id="TRANSP-35%" transform="translate(12.462236, 0.388818)" stroke-width="2">
                        <polygon id="Stroke-75" points="462.705487 251.670669 405.607262 204.663547 420.242912 127.328608 477.342383 174.334483"></polygon>
                        <polygon id="Stroke-77" points="151.20929 110.871878 179.933497 134.974867 194.422092 56.9457875 165.164502 31.7785337"></polygon>
                        <polygon id="Stroke-79" points="521.618837 160.84324 534.992062 239.13527 360.110755 216.050437 346.025937 136.400035"></polygon>
                        <polygon id="Stroke-81" points="647.296869 197.748316 631.739014 275.964328 547.876892 265.084896 562.303176 185.803373"></polygon>
                        <polygon id="Stroke-83" points="647.296869 197.748316 618.307217 174.207369 533.729762 163.045047 562.303176 185.803373"></polygon>
                        <polygon id="Stroke-85" points="506.252776 163.050281 519.626001 241.342312 547.876643 265.083899 533.791824 185.433497"></polygon>
                        <polygon id="Stroke-87" points="733.955642 146.714434 772.133701 155.604912 744.565989 80.1841542 706.386684 71.2936769"></polygon>
                        <polygon id="Stroke-46" points="321.256122 129.159792 348.802647 204.558118 386.297776 212.184936 358.039656 135.428239"></polygon>
                        <polygon id="Stroke-72" points="334.073656 297.229317 305.305831 275.187564 327.613233 149.694003 356.381057 171.735757"></polygon>
                        <polygon id="Stroke-73" points="83.762923 183.916483 100.549554 148.947771 262.542417 141.130283 245.754539 176.098995"></polygon>
                        <polygon id="Stroke-74" points="196.706171 122.927485 213.492802 87.9587731 375.485665 80.1412845 358.699033 115.109997"></polygon>
                        <polygon id="Stroke-89" points="672.409396 205.529789 707.949199 219.947217 692.5546 121.689623 657.037228 107.474081"></polygon>
                        <polygon id="Stroke-91" points="681.224807 118.537828 721.191197 121.863968 693.533758 50.8136761 655.238554 47.6844375"></polygon>
                        <polygon id="Stroke-93" points="27.7175076 118.476389 66.0127115 121.605628 38.3565181 50.5553364 0.0613141994 47.4248515"></polygon>
                        <polygon id="Stroke-98" points="726.982772 169.405465 743.26219 209.572128 786.143497 153.5524 769.862832 113.385737"></polygon>
                        <polygon id="Stroke-95" points="669.870091 120.338978 577.992258 134.377558 559.826057 66.2085083 651.70389 52.1699288"></polygon>
                        <polygon id="Stroke-99" points="655.276937 123.804943 688.893818 136.97242 685.320895 65.3376553 651.704014 52.170178"></polygon>
                        <polygon id="Stroke-101" points="688.893943 136.972919 722.512069 150.140396 718.939147 78.5056311 685.32102 65.3381538"></polygon>
                        <polygon id="Stroke-103" points="700.534045 171.310674 738.712103 180.201151 711.144392 104.780394 672.966333 95.8899163"></polygon>
                        <polygon id="Stroke-105" points="94.541386 123.380234 66.1985234 99.6610788 80.6871186 21.6319992 108.496597 44.2868894"></polygon>
                        <polygon id="Stroke-107" points="152.159162 204.166807 235.449267 177.613766 208.011163 101.937534 127.533784 128.323584"></polygon>
                        <polygon id="Stroke-109" points="502.550619 193.488763 428.425242 177.239403 400.995861 101.883449 475.122485 118.132809"></polygon>
                        <polygon id="Stroke-111" points="377.543055 266.191408 414.425042 268.545502 375.959105 197.908953 339.556915 194.412082"></polygon>
                        <polygon id="Stroke-113" points="654.620302 207.531829 572.151458 234.823875 546.225023 158.8822 628.693867 131.588909"></polygon>
                        <polygon id="Stroke-115" points="631.739264 275.963954 602.209996 253.325264 618.307466 174.206995 647.297119 197.747942"></polygon>
                        <polygon id="Stroke-117" points="715.954192 287.622268 687.646224 265.29887 703.742447 186.181848 732.051662 208.503999"></polygon>
                        <polygon id="Stroke-119" points="660.696888 192.694677 632.38892 170.371279 648.48639 91.2542564 676.794358 113.576408"></polygon>
                        <polygon id="Stroke-121" points="647.296869 197.748316 618.307217 174.207369 634.404687 95.0891004 662.712655 117.411252"></polygon>
                        <polygon id="Stroke-123" points="669.870091 120.338978 711.61858 131.982338 693.452379 63.8145348 651.70389 52.1699288"></polygon>
                        <polygon id="Stroke-125" points="628.693618 131.588909 666.221148 139.929806 640.294713 63.986886 601.839992 55.9039542"></polygon>
                        <polygon id="Stroke-127" points="628.693618 131.588909 546.224773 158.8822 519.997998 82.8782155 601.839992 55.9039542"></polygon>
                        <polygon id="Stroke-129" points="152.159162 204.166807 235.449267 177.613766 273.285861 186.741023 193.07642 211.731315"></polygon>
                        <polygon id="Stroke-131" points="196.293048 292.484739 234.67798 295.338564 196.212043 224.700769 158.306907 220.705413"></polygon>
                        <polygon id="Stroke-133" points="196.293048 292.484739 273.50906 255.004909 235.043123 184.36836 158.306907 220.705413"></polygon>
                        <polygon id="Stroke-138" points="612.862092 242.044802 572.151707 234.824248 519.998497 82.8773432 559.588527 92.2226879"></polygon>
                        <polygon id="Stroke-139" points="556.595223 326.671079 553.149415 290.563329 686.88665 203.572738 689.998471 239.969609"></polygon>
                        <polygon id="Stroke-141" points="490.937187 153.823576 459.29557 175.516391 310.9177 110.935186 342.559316 89.2436178"></polygon>
                        <polygon id="Stroke-143" points="624.176057 159.824711 586.64105 150.896847 533.068391 0.475305303 570.794071 9.21748333"></polygon>
                        <polygon id="Stroke-145" points="627.700502 184.194513 588.326069 180.408521 514.42875 42.3456648 553.80443 46.130411"></polygon>
                        <polygon id="Stroke-147" points="672.966208 95.8899163 591.837054 122.561348 564.269343 47.1405905 645.397251 20.4691587"></polygon>
                        <polygon id="Stroke-149" points="643.701265 224.99338 622.09798 279.813005 488.914067 269.167861 510.517353 214.348236"></polygon>
                        <polygon id="Stroke-151" points="526.67676 119.438964 500.926042 148.169138 343.164109 123.499123 368.843792 94.5122288"></polygon>
                        <polygon id="Stroke-153" points="792.884196 145.282661 770.774943 178.081718 614.180721 177.169491 636.289974 144.370434"></polygon>
                        <polygon id="Stroke-135" points="245.739709 111.342822 273.286235 186.741148 310.565767 194.32061 282.523244 117.610023"></polygon>
                    </g>
                </g>
            </g>
        </g>
    </g>
</svg>